<?xml version="1.0" standalone="no"?>
<!DOCTYPE svg PUBLIC "-//W3C//DTD SVG 20010904//EN"
 "http://www.w3.org/TR/2001/REC-SVG-20010904/DTD/svg10.dtd">
<svg version="1.0" xmlns="http://www.w3.org/2000/svg"
 width="500.000000pt" height="500.000000pt" viewBox="0 0 500.000000 500.000000"
 preserveAspectRatio="xMidYMid meet">

<g transform="translate(0.000000,500.000000) scale(0.100000,-0.100000)"
fill="#000000" stroke="none">
<path d="M0 2500 l0 -2500 2500 0 2500 0 0 2500 0 2500 -2500 0 -2500 0 0
-2500z m3584 2190 c91 -11 208 -41 236 -61 12 -8 10 -10 -10 -5 -58 12 -168
17 -205 9 -38 -9 -32 -11 100 -37 289 -58 522 -148 621 -241 55 -52 55 -52
-36 -7 -110 54 -210 42 -210 -24 0 -38 15 -66 143 -271 163 -260 162 -259 80
-182 -209 197 -539 391 -817 481 -96 30 -246 66 -306 72 -37 4 -18 -3 55 -19
380 -85 741 -290 1007 -573 137 -147 195 -250 254 -455 35 -121 46 -207 15
-107 -56 173 -149 299 -268 359 -92 46 -141 15 -129 -82 4 -28 16 -89 26 -135
25 -105 25 -129 0 -74 -57 126 -214 323 -360 452 -81 71 -82 67 -4 -30 142
-178 305 -468 364 -649 31 -96 83 -331 75 -339 -5 -5 -5 -6 -35 98 -40 136
-123 279 -188 322 -15 10 -45 18 -69 18 -35 0 -50 -7 -84 -37 -96 -87 -160
-313 -145 -516 l6 -90 -45 42 c-122 112 -201 71 -330 -171 l-43 -82 -8 39 c-4
21 -5 106 -2 189 5 144 5 149 -9 106 -10 -29 -17 -102 -20 -201 -6 -172 8
-273 52 -381 l23 -58 -139 0 c-111 0 -139 -3 -139 -14 0 -11 -8 -11 -45 3
l-45 16 0 65 0 65 20 -25 20 -25 0 37 c1 129 -79 286 -190 374 -70 56 -67 39
8 -40 79 -83 115 -140 149 -232 26 -74 17 -83 -21 -21 l-27 42 6 -35 c3 -19 8
-74 11 -122 l7 -88 -131 0 c-136 0 -172 -7 -209 -42 l-22 -21 -31 27 c-17 14
-48 29 -68 32 l-37 6 0 76 c0 67 4 86 33 142 42 84 44 145 6 190 -15 17 -28
29 -30 27 -3 -2 5 -24 16 -48 24 -53 25 -93 2 -138 -22 -44 -36 -48 -51 -15
-20 44 -22 22 -5 -57 10 -47 13 -93 9 -126 l-6 -53 -132 0 -132 0 -83 90 c-46
50 -88 90 -94 90 -5 0 15 -27 45 -59 30 -33 64 -73 76 -89 l21 -30 -48 -4
c-26 -3 -65 2 -87 10 -22 7 -75 16 -117 19 -62 5 -82 2 -102 -11 -17 -11 -47
-16 -91 -16 l-67 0 -66 59 c-173 151 -335 217 -401 164 -26 -22 -39 -94 -34
-181 2 -36 0 -63 -6 -67 -6 -3 -11 1 -11 9 0 9 -8 16 -19 16 -14 0 -24 13 -36
49 -40 122 -80 320 -91 455 -4 47 -8 96 -9 108 -1 13 -3 68 -4 122 0 55 -3 97
-5 95 -2 -2 -11 -63 -20 -136 -19 -155 -20 -333 -2 -455 6 -48 10 -86 8 -84
-2 2 -28 57 -58 123 -54 117 -88 163 -124 163 -29 0 -76 -66 -96 -134 -18 -64
-24 -201 -10 -268 6 -33 5 -38 -12 -38 -41 0 -72 199 -68 425 5 199 29 333
100 549 78 237 162 394 325 611 68 90 75 102 38 67 -55 -53 -200 -259 -263
-373 -112 -201 -190 -413 -245 -664 -18 -82 -36 -153 -39 -158 -3 -4 -16 113
-29 260 -14 169 -28 277 -37 294 -18 35 -65 47 -99 25 -27 -18 -71 -79 -104
-144 -12 -24 -25 -41 -28 -38 -10 10 18 100 58 185 67 143 138 247 302 440 42
50 73 91 69 91 -15 0 -95 -60 -149 -113 -29 -28 -53 -48 -53 -43 0 25 100 153
160 205 152 131 296 215 514 300 71 28 138 59 148 68 10 9 33 43 51 75 17 32
35 58 39 58 4 0 13 -8 20 -19 11 -15 26 -18 83 -18 81 0 130 -21 182 -75 31
-32 63 -93 63 -120 0 -7 -24 11 -52 39 -64 62 -85 73 -137 73 -55 0 -93 -35
-136 -125 -53 -110 -75 -209 -75 -338 0 -90 2 -107 13 -98 11 8 17 -1 31 -47
71 -229 145 -344 313 -484 77 -64 126 -128 110 -144 -3 -4 -39 14 -79 39 -77
48 -185 152 -233 225 -15 23 -30 40 -32 38 -3 -2 14 -33 38 -68 58 -87 173
-197 247 -236 35 -19 82 -53 106 -78 24 -24 49 -44 55 -44 6 0 11 -4 11 -10 0
-15 -119 -12 -202 5 -248 53 -374 199 -438 510 l-18 90 5 -75 c12 -170 84
-343 175 -425 97 -87 201 -120 420 -131 l128 -7 30 -53 c17 -30 33 -54 36 -54
4 0 4 21 2 48 -7 57 -2 72 22 72 24 0 28 -7 41 -76 17 -90 37 -131 82 -164 45
-33 67 -40 46 -14 -7 9 -16 46 -20 83 -4 36 -10 74 -14 85 -6 14 -4 17 11 14
10 -2 35 -28 55 -58 35 -53 119 -131 119 -111 0 6 -16 23 -36 38 -20 15 -51
51 -69 80 -42 65 -78 91 -100 73 -17 -14 -12 -44 12 -72 12 -13 12 -24 3 -57
-6 -23 -15 -39 -19 -36 -17 10 -42 78 -56 151 -17 88 -27 110 -54 117 -34 8
-54 -15 -49 -56 2 -20 1 -37 -2 -37 -18 0 -34 66 -40 167 -7 123 -24 167 -62
161 -39 -6 -62 -52 -63 -123 0 -42 -3 -60 -10 -54 -5 6 -10 42 -10 82 0 57 7
89 33 156 41 104 40 118 -8 94 -24 -12 -43 -34 -60 -68 -23 -46 -25 -48 -28
-23 -5 39 22 85 90 154 45 46 59 67 56 85 -3 22 -7 24 -63 22 -33 -1 -80 -9
-104 -17 -24 -9 -46 -14 -49 -12 -9 9 77 54 183 95 134 52 127 48 115 71 -14
27 -71 42 -127 35 -44 -6 -46 -5 -29 9 19 15 59 25 190 47 l70 12 -23 18 c-16
13 -40 19 -75 19 -36 0 -47 3 -36 10 8 5 54 10 102 10 83 0 92 -2 168 -41 77
-39 80 -43 67 -62 -7 -11 -28 -26 -45 -31 -47 -17 -48 -25 -3 -32 22 -4 41 -9
41 -11 0 -3 -8 -17 -19 -31 -55 -78 -65 -114 -65 -212 0 -120 26 -194 92 -260
44 -44 41 -35 -7 25 -49 61 -65 113 -65 220 -1 125 19 178 71 183 23 2 33 -1
37 -15 10 -33 28 -194 23 -200 -3 -2 -13 9 -22 26 -21 41 -35 39 -35 -5 0 -29
9 -45 51 -89 l50 -53 -36 8 c-57 13 -39 -10 39 -50 l69 -34 -32 -11 -31 -10
52 -19 c29 -10 69 -25 88 -33 30 -13 32 -16 16 -22 -14 -6 -2 -15 55 -40 41
-19 68 -36 62 -38 -27 -10 -9 -25 90 -74 56 -28 119 -67 141 -87 26 -25 35
-30 27 -16 -15 31 -62 68 -138 111 -37 20 -61 39 -55 41 34 11 -4 56 -64 77
-21 7 -39 17 -41 21 -1 5 50 43 115 84 269 172 382 343 427 645 27 182 17 307
-39 460 -14 38 -23 71 -21 73 7 7 57 -81 80 -143 81 -214 68 -469 -34 -680
-37 -77 -83 -146 -190 -285 -46 -59 -108 -160 -98 -160 2 0 20 24 40 53 49 71
144 162 252 242 325 239 389 451 230 770 -30 60 -64 121 -75 135 -26 31 -26
30 37 -100 77 -160 88 -200 88 -315 -1 -116 -17 -174 -74 -262 -44 -67 -124
-148 -181 -182 -52 -30 -52 -21 0 107 55 137 71 202 77 315 7 122 -8 219 -56
356 -83 238 -194 367 -421 484 -64 33 -82 38 -123 34 -26 -2 -56 -12 -67 -22
-23 -21 -46 -81 -57 -155 -8 -54 -9 -55 -23 -30 -9 15 -14 51 -14 90 0 95 22
133 133 222 11 10 21 29 21 43 0 30 5 31 70 5 80 -31 151 -27 293 20 126 41
257 68 387 79 127 11 149 11 244 1z m-1627 -585 c62 -196 212 -323 386 -327
57 -1 66 5 42 32 -26 28 -13 25 81 -20 46 -22 88 -40 94 -40 5 0 20 -14 32
-31 20 -26 28 -30 58 -26 19 2 49 10 67 18 29 12 34 11 54 -6 28 -26 51 -71
59 -118 8 -41 -1 -55 -20 -32 -7 8 -17 12 -22 9 -5 -3 -16 2 -24 12 -13 18
-14 18 -20 -3 -8 -28 -13 -28 -30 -5 -10 14 -15 15 -25 5 -17 -17 -29 -16 -29
1 0 24 -20 29 -35 10 -13 -17 -16 -17 -25 -4 -9 13 -12 13 -25 -4 -11 -14 -18
-16 -28 -8 -15 13 -127 29 -127 18 0 -3 11 -24 25 -46 23 -37 55 -54 55 -30 0
6 5 10 10 10 6 0 10 -8 10 -19 0 -24 31 -52 37 -33 7 18 21 14 28 -8 5 -14 12
-19 25 -15 13 4 19 -1 24 -20 5 -20 11 -25 26 -20 13 4 20 0 25 -15 8 -24 21
-26 34 -3 7 14 12 15 24 5 8 -7 22 -10 31 -6 24 9 19 -11 -7 -28 -12 -9 -51
-27 -87 -42 -36 -15 -71 -30 -78 -33 -9 -4 -10 1 -2 21 14 37 4 52 -53 81 -66
32 -110 33 -142 0 -14 -13 -25 -29 -25 -35 0 -6 -5 -8 -11 -5 -6 4 -9 21 -7
38 l3 32 -85 5 -85 5 42 30 c24 17 43 34 43 38 0 4 -13 13 -30 18 -16 6 -28
16 -27 22 1 5 -12 13 -29 17 -35 8 -136 61 -129 68 2 3 32 -3 66 -12 33 -10
63 -15 65 -13 3 3 -21 21 -53 41 l-58 35 57 1 c31 0 59 4 62 8 3 5 -18 20 -45
33 -140 65 -260 300 -233 455 7 41 9 44 11 19 2 -16 11 -52 20 -80z m252 -77
c2 -35 44 -130 77 -173 19 -25 34 -47 34 -50 0 -9 -61 -5 -79 5 -39 20 -69
144 -56 228 6 37 9 43 16 27 4 -11 8 -28 8 -37z m-576 -185 c-13 -2 -35 -2
-50 0 -16 2 -5 4 22 4 28 0 40 -2 28 -4z m244 -49 c125 -43 193 -71 193 -80 0
-3 -11 -3 -25 0 -14 4 -25 3 -25 -2 0 -5 11 -19 25 -32 68 -64 -12 -31 -125
51 -38 28 -95 62 -127 75 -88 36 -37 29 84 -12z m463 -409 c0 -3 -7 -17 -16
-30 -10 -15 -14 -37 -12 -55 6 -41 -12 -34 -35 13 -25 51 -16 77 29 77 19 0
34 -2 34 -5z m1280 -1074 c0 -4 -25 -11 -56 -15 -74 -9 -116 -31 -112 -59 2
-12 14 -27 28 -35 25 -13 41 -13 280 3 l85 6 -58 -20 c-94 -31 -131 -65 -95
-87 7 -5 80 -8 163 -9 133 0 155 -2 195 -22 l45 -21 -367 -1 c-343 -1 -368 -2
-368 -18 -1 -11 -8 -5 -20 17 -17 31 -23 58 -34 151 -2 14 2 39 9 56 12 29 34
41 100 56 37 9 205 7 205 -2z m-3100 -516 c3 -105 11 -201 17 -215 l11 -25 13
30 c9 21 15 89 17 218 l3 187 95 0 94 0 0 -177 c0 -112 4 -189 12 -210 30 -83
48 -6 48 208 l0 179 95 0 95 0 0 -179 0 -180 -61 -170 -62 -171 -98 0 c-72 0
-99 3 -99 13 -1 6 -7 26 -14 42 l-13 30 -13 -42 -13 -43 -98 0 c-68 0 -98 4
-102 13 -2 6 -30 82 -61 168 l-56 156 0 182 0 182 93 -3 92 -3 5 -190z m977
162 l28 -27 3 -320 3 -320 -95 0 -95 0 -3 63 c-3 62 -3 62 -33 62 -30 0 -30 0
-33 -62 l-3 -63 -94 0 -95 0 0 304 c0 174 4 316 10 330 5 14 24 35 42 46 30
19 47 20 185 18 152 -3 153 -3 180 -31z m478 19 c18 -8 38 -23 44 -34 7 -12
11 -81 11 -167 0 -142 -1 -147 -25 -170 -13 -14 -30 -25 -37 -25 -7 -1 -1 -7
14 -16 42 -22 48 -43 48 -163 l0 -111 -95 0 -95 0 0 95 0 95 -30 0 -30 0 0
-95 0 -95 -95 0 -95 0 0 350 0 350 175 0 c129 0 185 -4 210 -14z m536 -24 l29
-32 0 -141 0 -141 -32 -31 -33 -32 33 -31 32 -32 0 -111 0 -111 -95 0 -95 0 0
95 0 95 -30 0 -30 0 0 -95 0 -95 -95 0 -95 0 0 351 0 350 191 -3 191 -3 29
-33z m474 24 c18 -8 38 -23 44 -34 7 -14 11 -129 11 -336 l0 -316 -95 0 -95 0
0 66 0 65 -27 -3 c-27 -3 -28 -6 -31 -65 l-3 -63 -94 0 -95 0 0 314 c0 404
-11 384 218 385 93 1 143 -3 167 -13z m371 -112 l59 -127 5 124 5 124 93 3 92
3 0 -351 0 -350 -93 0 -92 0 -62 123 -62 122 0 -122 -1 -123 -95 0 -95 0 0
350 0 350 94 0 93 0 59 -126z m764 31 l0 -94 -62 -3 -63 -3 -3 -252 -2 -253
-95 0 -95 0 0 255 0 255 -60 0 -60 0 0 95 0 95 220 0 220 0 0 -95z m250 -35
l0 -130 30 0 29 0 3 128 3 127 93 3 92 3 0 -166 c0 -163 0 -166 -25 -190 -16
-17 -35 -25 -60 -25 l-35 0 0 -160 0 -160 -95 0 -94 0 -3 157 -3 158 -39 6
c-25 4 -48 16 -63 33 -22 26 -23 34 -23 187 l0 159 95 0 95 0 0 -130z m-630
-222 l-1 -93 -34 37 c-31 34 -35 44 -35 93 l0 55 35 0 35 0 0 -92z m384 45 c4
-27 7 -58 7 -70 -1 -14 13 -33 36 -50 76 -58 83 -68 83 -123 0 -43 -3 -53 -20
-57 -30 -8 -37 -54 -32 -203 7 -206 -29 -327 -131 -437 -22 -24 -42 -42 -44
-40 -2 2 10 33 27 68 41 87 40 169 -1 169 -20 0 -34 -22 -84 -141 -40 -95
-106 -190 -175 -252 -50 -45 -188 -123 -199 -112 -2 3 12 19 32 36 37 30 88
97 100 132 4 11 1 20 -9 24 -19 7 -54 -25 -145 -133 -37 -45 -89 -95 -115
-112 -50 -34 -150 -75 -167 -69 -6 2 26 32 71 67 45 35 79 66 77 68 -2 2 -37
-12 -77 -32 -233 -112 -549 -170 -788 -145 -155 17 -358 86 -468 160 -107 71
-236 219 -212 243 7 7 32 -13 77 -61 68 -71 150 -133 175 -133 8 0 45 -13 83
-30 56 -23 71 -26 73 -15 2 8 7 15 12 15 12 0 133 -52 145 -62 12 -11 43 -10
47 1 2 6 21 6 48 1 95 -17 120 -18 120 -5 0 7 -12 23 -27 35 l-28 21 25 -4
c14 -3 57 -12 95 -21 39 -9 95 -16 125 -16 50 1 53 2 36 15 -11 8 -18 17 -15
19 2 2 44 10 92 18 86 13 111 28 65 38 -31 8 -17 15 82 40 90 23 120 35 120
50 0 5 -17 10 -37 12 -35 3 -31 5 52 32 50 15 108 38 130 50 l40 21 -55 5 -55
5 95 47 c53 25 115 64 139 85 l44 39 -56 -1 c-31 0 -57 5 -57 10 -1 6 24 18
55 27 86 25 128 59 165 134 18 36 29 68 26 71 -3 3 -37 -8 -74 -25 -38 -18
-79 -32 -93 -32 -21 0 -16 7 38 58 66 60 102 123 103 179 0 25 -4 31 -15 27
-13 -5 -15 11 -15 115 0 67 3 121 7 121 4 0 20 -12 35 -27 l28 -27 0 -137 0
-138 68 -3 67 -3 0 -115 c0 -63 -3 -133 -7 -155 -5 -31 -2 -27 14 20 14 43 21
88 22 157 l1 98 73 0 72 0 0 250 0 250 34 0 c32 0 34 -2 40 -47z m206 -468 c0
-21 -29 -89 -35 -83 -11 11 8 98 21 98 8 0 14 -7 14 -15z m-2400 -124 c0 -124
14 -196 30 -156 5 11 9 77 9 148 l1 127 70 0 70 0 0 -114 c0 -111 -1 -118 -46
-240 l-46 -126 -67 0 -66 0 -43 118 c-41 114 -42 120 -42 240 l0 122 65 0 65
0 0 -119z m500 99 c19 -19 20 -33 20 -220 0 -252 7 -240 -148 -240 -161 0
-152 -15 -152 240 0 255 -9 240 152 240 95 0 110 -2 128 -20z m360 -220 l0
-240 -65 0 -65 0 0 147 0 147 -43 -42 -43 -42 -42 43 c-23 23 -42 47 -42 52 0
5 37 47 82 92 l83 83 67 0 68 0 0 -240z m340 220 c19 -19 20 -33 20 -220 0
-255 11 -240 -170 -240 l-130 0 0 240 0 240 130 0 c117 0 132 -2 150 -20z
m100 -150 c0 -5 -4 -10 -10 -10 -5 0 -10 5 -10 10 0 6 5 10 10 10 6 0 10 -4
10 -10z"/>
<path d="M3023 4560 c-28 -12 -44 -27 -48 -43 -7 -25 11 -74 22 -63 3 3 0 12
-6 20 -33 40 37 76 184 95 l70 8 -90 2 c-69 0 -100 -4 -132 -19z"/>
<path d="M884 3789 c-117 -79 -174 -124 -129 -101 11 6 70 45 130 87 61 43
119 81 130 86 14 5 16 8 4 8 -9 1 -69 -35 -135 -80z"/>
<path d="M3314 3058 c-82 -93 -254 -361 -269 -418 -3 -14 11 7 33 45 82 149
172 282 240 357 19 21 33 41 30 44 -3 2 -18 -10 -34 -28z"/>
<path d="M1614 2465 c123 -18 255 -55 354 -100 92 -42 67 -18 -33 31 -92 45
-205 73 -324 79 l-96 5 99 -15z"/>
<path d="M2440 3700 c0 -15 48 -43 65 -36 22 8 18 21 -10 34 -32 15 -55 15
-55 2z"/>
<path d="M1277 1794 c-4 -4 -7 -47 -7 -96 l0 -88 35 0 36 0 -3 93 c-3 90 -3
92 -28 95 -14 2 -29 0 -33 -4z"/>
<path d="M1787 1793 c-4 -3 -7 -33 -7 -65 0 -58 0 -58 30 -58 l30 0 0 65 c0
61 -1 65 -23 65 -13 0 -27 -3 -30 -7z"/>
<path d="M2290 1736 l0 -66 30 0 31 0 -3 63 c-3 59 -4 62 -30 65 l-28 3 0 -65z"/>
<path d="M2797 1793 c-4 -3 -7 -46 -7 -95 l0 -88 30 0 30 0 0 95 c0 93 -1 95
-23 95 -13 0 -27 -3 -30 -7z"/>
<path d="M2280 970 c0 -103 1 -110 20 -110 19 0 20 7 20 110 0 103 -1 110 -20
110 -19 0 -20 -7 -20 -110z"/>
<path d="M2980 970 c0 -103 1 -110 20 -110 19 0 20 7 20 110 0 103 -1 110 -20
110 -19 0 -20 -7 -20 -110z"/>
</g>
</svg>
