<?xml version="1.0" encoding="UTF-8" standalone="no"?>
<svg
   version="1.0"
   width="500.000000pt"
   height="500.000000pt"
   viewBox="0 0 500.000000 500.000000"
   preserveAspectRatio="xMidYMid meet"
   id="svg12"
   sodipodi:docname="logo.svg"
   inkscape:version="1.3.2 (091e20ef0f, 2023-11-25)"
   xmlns:inkscape="http://www.inkscape.org/namespaces/inkscape"
   xmlns:sodipodi="http://sodipodi.sourceforge.net/DTD/sodipodi-0.dtd"
   xmlns="http://www.w3.org/2000/svg"
   xmlns:svg="http://www.w3.org/2000/svg">
  <defs
     id="defs12" />
  <sodipodi:namedview
     id="namedview12"
     pagecolor="#ffffff"
     bordercolor="#000000"
     borderopacity="0.25"
     inkscape:showpageshadow="2"
     inkscape:pageopacity="0.0"
     inkscape:pagecheckerboard="0"
     inkscape:deskcolor="#d1d1d1"
     inkscape:document-units="pt"
     inkscape:zoom="1.26"
     inkscape:cx="567.46032"
     inkscape:cy="292.85714"
     inkscape:window-width="1920"
     inkscape:window-height="1043"
     inkscape:window-x="0"
     inkscape:window-y="0"
     inkscape:window-maximized="1"
     inkscape:current-layer="svg12" />
  <g
     transform="translate(0.000000,500.000000) scale(0.100000,-0.100000)"
     fill="#000000"
     stroke="none"
     id="g12"
     style="fill:#000000;fill-opacity:1">
    <path
       d="M 0,2500 V 0 H 2500 5000 V 2500 5000 H 2500 0 Z m 3584,2190 c 91,-11 208,-41 236,-61 12,-8 10,-10 -10,-5 -58,12 -168,17 -205,9 -38,-9 -32,-11 100,-37 289,-58 522,-148 621,-241 55,-52 55,-52 -36,-7 -110,54 -210,42 -210,-24 0,-38 15,-66 143,-271 163,-260 162,-259 80,-182 -209,197 -539,391 -817,481 -96,30 -246,66 -306,72 -37,4 -18,-3 55,-19 380,-85 741,-290 1007,-573 137,-147 195,-250 254,-455 35,-121 46,-207 15,-107 -56,173 -149,299 -268,359 -92,46 -141,15 -129,-82 4,-28 16,-89 26,-135 25,-105 25,-129 0,-74 -57,126 -214,323 -360,452 -81,71 -82,67 -4,-30 142,-178 305,-468 364,-649 31,-96 83,-331 75,-339 -5,-5 -5,-6 -35,98 -40,136 -123,279 -188,322 -15,10 -45,18 -69,18 -35,0 -50,-7 -84,-37 -96,-87 -160,-313 -145,-516 l 6,-90 -45,42 c -122,112 -201,71 -330,-171 l -43,-82 -8,39 c -4,21 -5,106 -2,189 5,144 5,149 -9,106 -10,-29 -17,-102 -20,-201 -6,-172 8,-273 52,-381 l 23,-58 h -139 c -111,0 -139,-3 -139,-14 0,-11 -8,-11 -45,3 l -45,16 v 65 65 l 20,-25 20,-25 v 37 c 1,129 -79,286 -190,374 -70,56 -67,39 8,-40 79,-83 115,-140 149,-232 26,-74 17,-83 -21,-21 l -27,42 6,-35 c 3,-19 8,-74 11,-122 l 7,-88 h -131 c -136,0 -172,-7 -209,-42 l -22,-21 -31,27 c -17,14 -48,29 -68,32 l -37,6 v 76 c 0,67 4,86 33,142 42,84 44,145 6,190 -15,17 -28,29 -30,27 -3,-2 5,-24 16,-48 24,-53 25,-93 2,-138 -22,-44 -36,-48 -51,-15 -20,44 -22,22 -5,-57 10,-47 13,-93 9,-126 l -6,-53 h -132 -132 l -83,90 c -46,50 -88,90 -94,90 -5,0 15,-27 45,-59 30,-33 64,-73 76,-89 l 21,-30 -48,-4 c -26,-3 -65,2 -87,10 -22,7 -75,16 -117,19 -62,5 -82,2 -102,-11 -17,-11 -47,-16 -91,-16 h -67 l -66,59 c -173,151 -335,217 -401,164 -26,-22 -39,-94 -34,-181 2,-36 0,-63 -6,-67 -6,-3 -11,1 -11,9 0,9 -8,16 -19,16 -14,0 -24,13 -36,49 -40,122 -80,320 -91,455 -4,47 -8,96 -9,108 -1,13 -3,68 -4,122 0,55 -3,97 -5,95 -2,-2 -11,-63 -20,-136 -19,-155 -20,-333 -2,-455 6,-48 10,-86 8,-84 -2,2 -28,57 -58,123 -54,117 -88,163 -124,163 -29,0 -76,-66 -96,-134 -18,-64 -24,-201 -10,-268 6,-33 5,-38 -12,-38 -41,0 -72,199 -68,425 5,199 29,333 100,549 78,237 162,394 325,611 68,90 75,102 38,67 -55,-53 -200,-259 -263,-373 -112,-201 -190,-413 -245,-664 -18,-82 -36,-153 -39,-158 -3,-4 -16,113 -29,260 -14,169 -28,277 -37,294 -18,35 -65,47 -99,25 -27,-18 -71,-79 -104,-144 -12,-24 -25,-41 -28,-38 -10,10 18,100 58,185 67,143 138,247 302,440 42,50 73,91 69,91 -15,0 -95,-60 -149,-113 -29,-28 -53,-48 -53,-43 0,25 100,153 160,205 152,131 296,215 514,300 71,28 138,59 148,68 10,9 33,43 51,75 17,32 35,58 39,58 4,0 13,-8 20,-19 11,-15 26,-18 83,-18 81,0 130,-21 182,-75 31,-32 63,-93 63,-120 0,-7 -24,11 -52,39 -64,62 -85,73 -137,73 -55,0 -93,-35 -136,-125 -53,-110 -75,-209 -75,-338 0,-90 2,-107 13,-98 11,8 17,-1 31,-47 71,-229 145,-344 313,-484 77,-64 126,-128 110,-144 -3,-4 -39,14 -79,39 -77,48 -185,152 -233,225 -15,23 -30,40 -32,38 -3,-2 14,-33 38,-68 58,-87 173,-197 247,-236 35,-19 82,-53 106,-78 24,-24 49,-44 55,-44 6,0 11,-4 11,-10 0,-15 -119,-12 -202,5 -248,53 -374,199 -438,510 l -18,90 5,-75 c 12,-170 84,-343 175,-425 97,-87 201,-120 420,-131 l 128,-7 30,-53 c 17,-30 33,-54 36,-54 4,0 4,21 2,48 -7,57 -2,72 22,72 24,0 28,-7 41,-76 17,-90 37,-131 82,-164 45,-33 67,-40 46,-14 -7,9 -16,46 -20,83 -4,36 -10,74 -14,85 -6,14 -4,17 11,14 10,-2 35,-28 55,-58 35,-53 119,-131 119,-111 0,6 -16,23 -36,38 -20,15 -51,51 -69,80 -42,65 -78,91 -100,73 -17,-14 -12,-44 12,-72 12,-13 12,-24 3,-57 -6,-23 -15,-39 -19,-36 -17,10 -42,78 -56,151 -17,88 -27,110 -54,117 -34,8 -54,-15 -49,-56 2,-20 1,-37 -2,-37 -18,0 -34,66 -40,167 -7,123 -24,167 -62,161 -39,-6 -62,-52 -63,-123 0,-42 -3,-60 -10,-54 -5,6 -10,42 -10,82 0,57 7,89 33,156 41,104 40,118 -8,94 -24,-12 -43,-34 -60,-68 -23,-46 -25,-48 -28,-23 -5,39 22,85 90,154 45,46 59,67 56,85 -3,22 -7,24 -63,22 -33,-1 -80,-9 -104,-17 -24,-9 -46,-14 -49,-12 -9,9 77,54 183,95 134,52 127,48 115,71 -14,27 -71,42 -127,35 -44,-6 -46,-5 -29,9 19,15 59,25 190,47 l 70,12 -23,18 c -16,13 -40,19 -75,19 -36,0 -47,3 -36,10 8,5 54,10 102,10 83,0 92,-2 168,-41 77,-39 80,-43 67,-62 -7,-11 -28,-26 -45,-31 -47,-17 -48,-25 -3,-32 22,-4 41,-9 41,-11 0,-3 -8,-17 -19,-31 -55,-78 -65,-114 -65,-212 0,-120 26,-194 92,-260 44,-44 41,-35 -7,25 -49,61 -65,113 -65,220 -1,125 19,178 71,183 23,2 33,-1 37,-15 10,-33 28,-194 23,-200 -3,-2 -13,9 -22,26 -21,41 -35,39 -35,-5 0,-29 9,-45 51,-89 l 50,-53 -36,8 c -57,13 -39,-10 39,-50 l 69,-34 -32,-11 -31,-10 52,-19 c 29,-10 69,-25 88,-33 30,-13 32,-16 16,-22 -14,-6 -2,-15 55,-40 41,-19 68,-36 62,-38 -27,-10 -9,-25 90,-74 56,-28 119,-67 141,-87 26,-25 35,-30 27,-16 -15,31 -62,68 -138,111 -37,20 -61,39 -55,41 34,11 -4,56 -64,77 -21,7 -39,17 -41,21 -1,5 50,43 115,84 269,172 382,343 427,645 27,182 17,307 -39,460 -14,38 -23,71 -21,73 7,7 57,-81 80,-143 81,-214 68,-469 -34,-680 -37,-77 -83,-146 -190,-285 -46,-59 -108,-160 -98,-160 2,0 20,24 40,53 49,71 144,162 252,242 325,239 389,451 230,770 -30,60 -64,121 -75,135 -26,31 -26,30 37,-100 77,-160 88,-200 88,-315 -1,-116 -17,-174 -74,-262 -44,-67 -124,-148 -181,-182 -52,-30 -52,-21 0,107 55,137 71,202 77,315 7,122 -8,219 -56,356 -83,238 -194,367 -421,484 -64,33 -82,38 -123,34 -26,-2 -56,-12 -67,-22 -23,-21 -46,-81 -57,-155 -8,-54 -9,-55 -23,-30 -9,15 -14,51 -14,90 0,95 22,133 133,222 11,10 21,29 21,43 0,30 5,31 70,5 80,-31 151,-27 293,20 126,41 257,68 387,79 127,11 149,11 244,1 z M 1957,4105 c 62,-196 212,-323 386,-327 57,-1 66,5 42,32 -26,28 -13,25 81,-20 46,-22 88,-40 94,-40 5,0 20,-14 32,-31 20,-26 28,-30 58,-26 19,2 49,10 67,18 29,12 34,11 54,-6 28,-26 51,-71 59,-118 8,-41 -1,-55 -20,-32 -7,8 -17,12 -22,9 -5,-3 -16,2 -24,12 -13,18 -14,18 -20,-3 -8,-28 -13,-28 -30,-5 -10,14 -15,15 -25,5 -17,-17 -29,-16 -29,1 0,24 -20,29 -35,10 -13,-17 -16,-17 -25,-4 -9,13 -12,13 -25,-4 -11,-14 -18,-16 -28,-8 -15,13 -127,29 -127,18 0,-3 11,-24 25,-46 23,-37 55,-54 55,-30 0,6 5,10 10,10 6,0 10,-8 10,-19 0,-24 31,-52 37,-33 7,18 21,14 28,-8 5,-14 12,-19 25,-15 13,4 19,-1 24,-20 5,-20 11,-25 26,-20 13,4 20,0 25,-15 8,-24 21,-26 34,-3 7,14 12,15 24,5 8,-7 22,-10 31,-6 24,9 19,-11 -7,-28 -12,-9 -51,-27 -87,-42 -36,-15 -71,-30 -78,-33 -9,-4 -10,1 -2,21 14,37 4,52 -53,81 -66,32 -110,33 -142,0 -14,-13 -25,-29 -25,-35 0,-6 -5,-8 -11,-5 -6,4 -9,21 -7,38 l 3,32 -85,5 -85,5 42,30 c 24,17 43,34 43,38 0,4 -13,13 -30,18 -16,6 -28,16 -27,22 1,5 -12,13 -29,17 -35,8 -136,61 -129,68 2,3 32,-3 66,-12 33,-10 63,-15 65,-13 3,3 -21,21 -53,41 l -58,35 57,1 c 31,0 59,4 62,8 3,5 -18,20 -45,33 -140,65 -260,300 -233,455 7,41 9,44 11,19 2,-16 11,-52 20,-80 z m 252,-77 c 2,-35 44,-130 77,-173 19,-25 34,-47 34,-50 0,-9 -61,-5 -79,5 -39,20 -69,144 -56,228 6,37 9,43 16,27 4,-11 8,-28 8,-37 z m -576,-185 c -13,-2 -35,-2 -50,0 -26.4933,-105.8807 74.9812,-154.5704 50,0 z m 244,-49 c 125,-43 193,-71 193,-80 0,-3 -11,-3 -25,0 -14,4 -25,3 -25,-2 0,-5 11,-19 25,-32 68,-64 -12,-31 -125,51 -38,28 -95,62 -127,75 -88,36 -37,29 84,-12 z m 463,-409 c 0,-3 -7,-17 -16,-30 -10,-15 -14,-37 -12,-55 6,-41 -12,-34 -35,13 -25,51 -16,77 29,77 19,0 34,-2 34,-5 z M 3620,2311 c 0,-4 -25,-11 -56,-15 -74,-9 -116,-31 -112,-59 2,-12 14,-27 28,-35 25,-13 41,-13 280,3 l 85,6 -58,-20 c -94,-31 -131,-65 -95,-87 7,-5 80,-8 163,-9 133,0 155,-2 195,-22 l 45,-21 -367,-1 c -343,-1 -368,-2 -368,-18 -1,-11 -8,-5 -20,17 -17,31 -23,58 -34,151 -2,14 2,39 9,56 12,29 34,41 100,56 37,9 205,7 205,-2 z M 520,1795 c 3,-105 11,-201 17,-215 l 11,-25 13,30 c 9,21 15,89 17,218 l 3,187 h 95 94 v -177 c 0,-112 4,-189 12,-210 30,-83 48,-6 48,208 v 179 h 95 95 v -179 -180 l -61,-170 -62,-171 h -98 c -72,0 -99,3 -99,13 -1,6 -7,26 -14,42 l -13,30 -13,-42 -13,-43 h -98 c -68,0 -98,4 -102,13 -2,6 -30,82 -61,168 l -56,156 v 182 182 l 93,-3 92,-3 z m 977,162 28,-27 3,-320 3,-320 h -95 -95 l -3,63 c -3,62 -3,62 -33,62 -30,0 -30,0 -33,-62 l -3,-63 h -94 -95 v 304 c 0,174 4,316 10,330 5,14 24,35 42,46 30,19 47,20 185,18 152,-3 153,-3 180,-31 z m 478,19 c 18,-8 38,-23 44,-34 7,-12 11,-81 11,-167 0,-142 -1,-147 -25,-170 -13,-14 -30,-25 -37,-25 -7,-1 -1,-7 14,-16 42,-22 48,-43 48,-163 v -111 h -95 -95 v 95 95 h -30 -30 v -95 -95 h -95 -95 v 350 350 h 175 c 129,0 185,-4 210,-14 z m 536,-24 29,-32 v -141 -141 l -32,-31 -33,-32 33,-31 32,-32 v -111 -111 h -95 -95 v 95 95 h -30 -30 v -95 -95 h -95 -95 v 351 350 l 191,-3 191,-3 z m 474,24 c 18,-8 38,-23 44,-34 7,-14 11,-129 11,-336 v -316 h -95 -95 v 66 65 l -27,-3 c -27,-3 -28,-6 -31,-65 l -3,-63 h -94 -95 v 314 c 0,404 -11,384 218,385 93,1 143,-3 167,-13 z m 371,-112 59,-127 5,124 5,124 93,3 92,3 v -351 -350 h -93 -92 l -62,123 -62,122 v -122 l -1,-123 h -95 -95 v 350 350 h 94 93 z m 764,31 v -94 l -62,-3 -63,-3 -3,-252 -2,-253 h -95 -95 v 255 255 h -60 -60 v 95 95 h 220 220 z m 250,-35 v -130 h 30 29 l 3,128 3,127 93,3 92,3 v -166 c 0,-163 0,-166 -25,-190 -16,-17 -35,-25 -60,-25 h -35 v -160 -160 h -95 -94 l -3,157 -3,158 -39,6 c -25,4 -48,16 -63,33 -22,26 -23,34 -23,187 v 159 h 95 95 z m -630,-222 -1,-93 -34,37 c -31,34 -35,44 -35,93 v 55 h 35 35 z m 384,45 c 4,-27 7,-58 7,-70 -1,-14 13,-33 36,-50 76,-58 83,-68 83,-123 0,-43 -3,-53 -20,-57 -30,-8 -37,-54 -32,-203 7,-206 -29,-327 -131,-437 -22,-24 -42,-42 -44,-40 -2,2 10,33 27,68 41,87 40,169 -1,169 -20,0 -34,-22 -84,-141 -40,-95 -106,-190 -175,-252 -50,-45 -188,-123 -199,-112 -2,3 12,19 32,36 37,30 88,97 100,132 4,11 1,20 -9,24 -19,7 -54,-25 -145,-133 -37,-45 -89,-95 -115,-112 -50,-34 -150,-75 -167,-69 -6,2 26,32 71,67 45,35 79,66 77,68 -2,2 -37,-12 -77,-32 -233,-112 -549,-170 -788,-145 -155,17 -358,86 -468,160 -107,71 -236,219 -212,243 7,7 32,-13 77,-61 68,-71 150,-133 175,-133 8,0 45,-13 83,-30 56,-23 71,-26 73,-15 2,8 7,15 12,15 12,0 133,-52 145,-62 12,-11 43,-10 47,1 2,6 21,6 48,1 95,-17 120,-18 120,-5 0,7 -12,23 -27,35 l -28,21 25,-4 c 14,-3 57,-12 95,-21 39,-9 95,-16 125,-16 50,1 53,2 36,15 -11,8 -18,17 -15,19 2,2 44,10 92,18 86,13 111,28 65,38 -31,8 -17,15 82,40 90,23 120,35 120,50 0,5 -17,10 -37,12 -35,3 -31,5 52,32 50,15 108,38 130,50 l 40,21 -55,5 -55,5 95,47 c 53,25 115,64 139,85 l 44,39 -56,-1 c -31,0 -57,5 -57,10 -1,6 24,18 55,27 86,25 128,59 165,134 18,36 29,68 26,71 -3,3 -37,-8 -74,-25 -38,-18 -79,-32 -93,-32 -21,0 -16,7 38,58 66,60 102,123 103,179 0,25 -4,31 -15,27 -13,-5 -15,11 -15,115 0,67 3,121 7,121 4,0 20,-12 35,-27 l 28,-27 v -137 -138 l 68,-3 67,-3 v -115 c 0,-63 -3,-133 -7,-155 -5,-31 -2,-27 14,20 14,43 21,88 22,157 l 1,98 h 73 72 v 250 250 h 34 c 32,0 34,-2 40,-47 z M 1930,1091 c 0,-124 14,-196 30,-156 5,11 9,77 9,148 l 1,127 h 70 70 v -114 c 0,-111 -1,-118 -46,-240 l -46,-126 h -67 -66 l -43,118 c -41,114 -42,120 -42,240 v 122 h 65 65 z m 500,99 c 19,-19 20,-33 20,-220 0,-252 7,-240 -148,-240 -161,0 -152,-15 -152,240 0,255 -9,240 152,240 95,0 110,-2 128,-20 z M 2790,970 V 730 h -65 -65 v 147 147 l -43,-42 -43,-42 -42,43 c -23,23 -42,47 -42,52 0,5 37,47 82,92 l 83,83 h 67 68 z m 340,220 c 19,-19 20,-33 20,-220 0,-255 11,-240 -170,-240 h -130 v 240 240 h 130 c 117,0 132,-2 150,-20 z"
       id="path1"
       style="fill:#000000;fill-opacity:1"
       inkscape:label="path1"
       sodipodi:nodetypes="ccccccccccccccccscccccccccccccccsccsccccccccccccsscccccccccccccccscccccscccccsccccccscccccccscccccssccccsccscsccscccccccccccsccscsccscscscscscsccccccccccssccccccccscscscccscssccccccccsccccscsscccccccccccccscsccccscssccccccsccccccccccccccccccccccscccsccccccccccccccccscsccccccccsccccccscscsscsccscsssccsccsccccsccccsccccccscccccsccccccccccsccccccccscsccccscccsssccccccccccccccccsccccccccscscccccccscccccscccccccccccccccsccccsccccccscccscccccccccccccsccccccccccccccccccccccccccccscccccsccccsccccccccccccccccccccccccccccccccccccccccccccccccscscccccccccscccccccscccccccscccscscccccccccsscccscsccscccsccccccccccscccccccccccccscscccssccccccsccccccccscscccccscccccscccssssssscccccccccssccccssscccss" />
    <path
       d="M3023 4560 c-28 -12 -44 -27 -48 -43 -7 -25 11 -74 22 -63 3 3 0 12 -6 20 -33 40 37 76 184 95 l70 8 -90 2 c-69 0 -100 -4 -132 -19z"
       id="path2"
       style="fill:#000000;fill-opacity:1" />
    <path
       d="M884 3789 c-117 -79 -174 -124 -129 -101 11 6 70 45 130 87 61 43 119 81 130 86 14 5 16 8 4 8 -9 1 -69 -35 -135 -80z"
       id="path3"
       style="fill:#000000;fill-opacity:1" />
    <path
       d="M3314 3058 c-82 -93 -254 -361 -269 -418 -3 -14 11 7 33 45 82 149 172 282 240 357 19 21 33 41 30 44 -3 2 -18 -10 -34 -28z"
       id="path4"
       style="fill:#000000;fill-opacity:1" />
    <path
       d="M1614 2465 c123 -18 255 -55 354 -100 92 -42 67 -18 -33 31 -92 45 -205 73 -324 79 l-96 5 99 -15z"
       id="path5"
       style="fill:#000000;fill-opacity:1" />
    <path
       d="M2440 3700 c0 -15 48 -43 65 -36 22 8 18 21 -10 34 -32 15 -55 15 -55 2z"
       id="path6"
       style="fill:#000000;fill-opacity:1" />
    <path
       d="M1277 1794 c-4 -4 -7 -47 -7 -96 l0 -88 35 0 36 0 -3 93 c-3 90 -3 92 -28 95 -14 2 -29 0 -33 -4z"
       id="path7"
       style="fill:#000000;fill-opacity:1" />
    <path
       d="M1787 1793 c-4 -3 -7 -33 -7 -65 0 -58 0 -58 30 -58 l30 0 0 65 c0 61 -1 65 -23 65 -13 0 -27 -3 -30 -7z"
       id="path8"
       style="fill:#000000;fill-opacity:1" />
    <path
       d="M2290 1736 l0 -66 30 0 31 0 -3 63 c-3 59 -4 62 -30 65 l-28 3 0 -65z"
       id="path9"
       style="fill:#000000;fill-opacity:1" />
    <path
       d="M2797 1793 c-4 -3 -7 -46 -7 -95 l0 -88 30 0 30 0 0 95 c0 93 -1 95 -23 95 -13 0 -27 -3 -30 -7z"
       id="path10"
       style="fill:#000000;fill-opacity:1" />
    <path
       d="M2280 970 c0 -103 1 -110 20 -110 19 0 20 7 20 110 0 103 -1 110 -20 110 -19 0 -20 -7 -20 -110z"
       id="path11"
       style="fill:#000000;fill-opacity:1" />
    <path
       d="M2980 970 c0 -103 1 -110 20 -110 19 0 20 7 20 110 0 103 -1 110 -20 110 -19 0 -20 -7 -20 -110z"
       id="path12"
       style="fill:#000000;fill-opacity:1" />
  </g>
  <path
     style="fill:#ffffff;fill-opacity:1;stroke-width:1.5873"
     d="m 334.5471,395.30314 -8.31005,-4.0333 -0.0233,-9.17481 c -0.0159,-6.25635 1.239,-12.17387 3.94497,-18.60297 5.07668,-12.06166 5.11497,-19.12558 0.13503,-24.91149 -4.88598,-5.67673 -6.42065,-4.20762 -3.33047,3.18822 2.87695,6.88553 3.04595,12.22364 0.55969,17.68034 -2.16119,4.7433 -3.76306,5.09058 -5.89649,1.27838 -2.78551,-4.97743 -3.62884,-0.90134 -1.77157,8.56262 1.00178,5.10471 1.5871,12.13844 1.30071,15.6305 l -0.52071,6.34921 -17.12559,0.45116 -17.12557,0.45116 -11.68238,-12.35592 c -6.4253,-6.79576 -12.19049,-11.86041 -12.81152,-11.2548 -0.62103,0.60562 2.95714,5.91783 7.95149,11.80489 8.18243,9.64497 8.77365,10.81732 5.97695,11.85189 -1.70705,0.63148 -8.03592,0.0993 -14.06417,-1.18259 -6.02827,-1.28188 -14.53191,-1.96847 -18.89699,-1.52574 -4.36508,0.44273 -12.67124,1.27609 -18.45814,1.85194 l -10.52164,1.04695 -11.33176,-9.51454 c -19.74563,-16.57914 -41.90588,-25.83419 -50.65098,-21.15395 -4.14082,2.21611 -6.63606,10.78896 -6.64767,22.83936 -0.008,8.63511 -0.19488,9.08329 -3.12772,7.51367 -7.96024,-4.26019 -18.6686,-62.89565 -19.13769,-104.79173 -0.0438,-3.91618 -0.46634,-4.85297 -1.43174,-3.17461 -2.64591,4.59996 -5.35613,43.08896 -4.38882,62.32759 l 0.95909,19.07529 -6.67908,-13.20962 c -11.15352,-22.05897 -17.637819,-23.72835 -26.00239,-6.6943 -4.150489,8.45227 -4.486219,10.53163 -4.486219,27.78568 0,10.25733 -0.51576,18.65019 -1.146135,18.65079 -0.630375,5.9e-4 -2.407938,-4.10606 -3.950141,-9.1259 -4.086751,-13.3023 -4.050627,-65.414 0.05857,-84.48581 9.185094,-42.63035 25.254105,-78.44403 50.898865,-113.44048 10.34344,-14.11531 12.37814,-18.98917 5.05557,-12.10997 -4.70442,4.41957 -23.62762,30.81734 -31.3739,43.76642 -14.889576,24.89019 -24.810714,49.95909 -33.921852,85.71428 -3.781852,14.84127 -6.915121,25.51089 -6.962819,23.71027 -0.275564,-10.40249 -6.468149,-64.06454 -7.796094,-67.55728 -2.174887,-5.7204 -9.001149,-7.31434 -14.396384,-3.36158 -2.246598,1.64596 -6.406152,6.41481 -9.243454,10.59747 -6.569676,9.68479 -6.540325,6.52938 0.08025,-8.62697 6.816864,-15.60572 16.213193,-29.89107 34.971721,-53.16792 8.439672,-10.47251 15.344858,-19.60479 15.344858,-20.29394 0,-1.96898 -6.44861,1.83761 -14.68254,8.66705 -4.146826,3.43949 -7.52958,5.67539 -7.51723,4.96866 0.05456,-3.12269 17.191298,-20.32161 29.051716,-29.15713 13.33339,-9.93284 39.513378,-23.73601 62.470638,-32.93712 11.88944,-4.76521 13.40657,-5.89022 18.15815,-13.46502 2.85162,-4.54596 5.41837,-8.5749 5.70387,-8.95321 0.28551,-0.3783 1.36434,0.15741 2.39741,1.19048 1.03307,1.03307 4.77116,1.88229 8.30688,1.88716 13.85879,0.0191 26.40176,6.9633 31.94724,17.68709 3.07996,5.95598 1.57496,5.71163 -5.78713,-0.93959 -11.93181,-10.77967 -23.22848,-8.67425 -31.6403,5.89698 -7.46657,12.93383 -11.20516,26.97225 -12.23885,45.95685 -0.7991,14.67621 -0.57769,17.15688 1.60616,17.9949 1.39317,0.5346 4.08846,5.73146 5.98954,11.54853 7.46172,22.8321 15.05004,34.57343 35.16161,54.40531 10.28054,10.13757 18.69189,19.25366 18.69189,20.25801 0,5.04061 -25.54721,-15.26744 -36.09423,-28.69211 -9.70274,-12.35003 -10.78362,-9.04917 -1.36079,4.15572 7.63989,10.70636 19.16494,21.34488 31.10581,28.71312 3.92857,2.42418 10.16262,7.16373 13.85343,10.53235 l 6.71055,6.12478 -8.29785,-0.0235 c -4.56383,-0.0129 -12.77584,-1.07924 -18.24892,-2.36962 -29.50737,-6.95697 -45.00031,-24.51463 -54.38423,-61.63194 -4.04971,-16.0183 -4.49134,-16.98855 -4.59627,-10.09785 -0.29996,19.69938 10.73942,48.45865 22.90588,59.6733 13.04409,12.02362 26.966,16.56236 56.69858,18.48457 l 17.02213,1.10048 4.14956,7.08068 c 4.75154,8.1079 6.25063,7.71252 6.25063,-1.64854 0,-10.64405 4.07137,-8.53176 7.16656,3.71809 3.32563,13.16188 5.09608,16.36104 11.94558,21.5854 6.25269,4.76916 7.83304,4.45997 5.76105,-1.12716 -2.07319,-5.59043 -3.75219,-20.45997 -2.30881,-20.4474 0.68483,0.006 2.94448,2.50615 5.02145,5.55596 5.1447,7.55443 16.52422,17.65862 17.29233,15.3543 0.3384,-1.01521 -1.7636,-4.18999 -4.67113,-7.05505 -2.90752,-2.86506 -8.00052,-8.58555 -11.31777,-12.71222 -6.18335,-7.69206 -11.49242,-9.66549 -13.30378,-4.94514 -0.53986,1.40682 0.16289,4.49527 1.56165,6.86317 2.48076,4.19959 2.09216,11.21386 -0.62126,11.21386 -1.26328,0 -2.65588,-4.21295 -8.13261,-24.60318 -1.9284,-7.17957 -2.60412,-7.98279 -7.08483,-8.42184 -4.20448,-0.41197 -5.18206,0.18783 -6.46776,3.96826 l -1.51465,4.45358 -0.96237,-6.3492 c -0.52928,-3.49207 -1.43744,-10.99207 -2.01812,-16.66667 -1.52346,-14.88802 -2.90461,-17.77857 -8.20345,-17.16886 -3.15198,0.3627 -5.13524,2.04542 -7.13962,6.05775 -2.60232,5.20925 -2.77546,5.30079 -2.77778,1.46849 -10e-4,-2.24787 1.78326,-9.33727 3.9658,-15.75421 2.18254,-6.41693 3.96825,-12.25633 3.96825,-12.97642 0,-3.05272 -5.47032,-0.91834 -10.47619,4.08754 -8.29422,8.29422 -6.39768,2.30873 2.29818,-7.25304 14.74635,-16.21477 14.40347,-19.54495 -1.90545,-18.50647 -5.68298,0.36187 -10.07038,0.23351 -9.74976,-0.28526 0.3206,-0.51876 8.16105,-4.04541 17.42321,-7.83701 12.38246,-5.06897 16.71238,-7.55795 16.35711,-9.40267 -0.65181,-3.3846 -7.165,-6.48265 -13.9471,-6.63403 -8.01097,-0.17883 -2.23652,-2.24981 13.22967,-4.74478 6.74194,-1.08759 12.64511,-2.60373 13.1182,-3.36919 0.47308,-0.76546 -1.51166,-2.42192 -4.41052,-3.68101 l -5.27068,-2.28927 8.90403,-0.0621 c 6.96786,-0.0486 11.02437,1.03142 18.65506,4.96688 9.26535,4.77852 9.62,5.17383 7.11981,7.93652 -1.44719,1.59911 -3.5045,2.90749 -4.57182,2.90749 -1.06734,0 -2.77648,1.00717 -3.79811,2.23817 -1.51226,1.82216 -0.95834,2.43567 2.98025,3.30072 2.66076,0.58441 4.83776,1.33122 4.83776,1.6596 0,0.32836 -1.76682,3.2006 -3.92628,6.38273 -5.0697,7.47063 -6.12905,13.58219 -5.31296,30.65151 0.69859,14.61149 4.35878,23.87436 12.25907,31.02401 5.73181,5.18723 5.49847,1.50524 -0.39362,-6.21141 -6.79292,-8.89641 -9.77373,-21.28984 -8.36416,-34.77592 1.10784,-10.59921 4.35124,-16.80909 8.77932,-16.80909 3.69024,0 4.46301,1.97942 5.69033,14.57536 0.74624,7.65867 0.56159,9.37154 -0.78159,7.25003 -2.83398,-4.47625 -4.7755,-3.21632 -4.7755,3.09903 0,4.45997 1.22312,7.13877 5.07328,11.11111 4.75732,4.90831 4.85618,5.23431 1.5873,5.23431 -5.63149,0 -4.04962,2.58714 4.65453,7.61244 7.25595,4.18921 7.8165,4.88122 5.15873,6.36862 -3.23165,1.80856 -3.22976,1.80971 12.09758,7.44087 3.05556,1.12261 5.38042,2.82303 5.16635,3.77876 -0.21404,0.95572 3.17881,3.54572 7.53969,5.75554 4.36089,2.20985 7.92889,4.96805 7.92889,6.12939 0,1.16133 5.86166,5.25644 13.02592,9.10023 7.16425,3.84381 15.05157,8.68477 17.52736,10.75769 2.47578,2.07292 4.95491,3.31547 5.50914,2.76122 1.60965,-1.60964 -7.61406,-10.36245 -15.75382,-14.94951 -5.32437,-3.00048 -7.60337,-5.33913 -7.93651,-8.14424 -0.33883,-2.85301 -2.32235,-4.82628 -7.21336,-7.17609 -3.71032,-1.78256 -6.72416,-3.59892 -6.69742,-4.03638 0.0267,-0.43745 6.56829,-5.08108 14.53676,-10.31918 34.27702,-22.53205 49.89862,-45.95906 56.09756,-84.12698 3.71368,-22.86578 3.00992,-35.90418 -3.29854,-61.11111 -2.11216,-8.43969 2.50265,0.89763 6.66824,13.49206 3.55103,10.73636 4.22106,15.64149 4.33638,31.74603 0.22144,30.92468 -7.07879,50.51056 -30.76502,82.53968 -13.57111,18.35121 -20.16244,29.36508 -17.57377,29.36508 0.84881,0 3.65881,-3.03571 6.24442,-6.74603 6.12597,-8.79063 17.80027,-19.85986 37.93094,-35.96497 16.42145,-13.13762 25.55125,-23.52419 32.219,-36.65408 4.97295,-9.79257 6.05654,-29.281 2.34684,-42.20851 -4.29206,-14.95698 -21.48984,-47.67612 -21.48984,-40.88489 0,0.94261 3.74967,9.84567 8.33259,19.78458 8.13889,17.65063 8.34482,18.45818 8.85833,34.7374 0.64305,20.38542 -2.211,29.43601 -13.76495,43.65079 -6.98554,8.59427 -22.47359,21.65278 -22.47359,18.94824 0,-0.59965 2.83472,-8.79392 6.29935,-18.20946 13.68821,-37.19917 11.35445,-70.14091 -7.58665,-107.08799 -11.59541,-22.61838 -44.98771,-48.412411 -62.67373,-48.41261 -5.89368,-6.6e-5 -8.46179,0.849876 -11.37735,3.76543 -3.57827,3.578262 -7.1733,12.955099 -7.19244,18.759854 -0.005,1.476256 -0.72315,3.125556 -1.59616,3.665106 -2.06289,1.27493 -2.12218,-16.640496 -0.0729,-22.030483 0.83292,-2.190751 5.06573,-7.334983 9.40626,-11.431627 4.3405,-4.096645 8.30592,-9.098292 8.81203,-11.114773 0.9019,-3.59353 1.03819,-3.616851 6.86359,-1.174563 9.4375,3.956661 22.91382,3.193071 42.19387,-2.390773 9.46157,-2.740237 23.39014,-6.185818 30.95238,-7.656848 17.88638,-3.479311 51.62308,-3.774773 64.54319,-0.565262 l 9.5238,2.36584 -10.73843,0.808773 c -5.90613,0.444826 -10.76074,1.499483 -10.78805,2.343682 -0.0273,0.844199 7.66216,3.181692 17.08764,5.194429 31.132,6.647989 54.92293,14.904968 70.41943,24.440054 8.62635,5.307846 9.40512,7.8277 1.39358,4.509217 -6.13512,-2.541255 -18.29736,-2.491504 -21.40493,0.08756 -5.86613,4.868454 -2.88648,12.075464 20.23866,48.952024 5.1311,8.18231 8.99508,15.21111 8.58664,15.61955 -0.40845,0.40844 -5.55124,-3.33664 -11.42841,-8.32241 -21.3657,-18.12508 -53.47586,-37.23187 -81.37672,-48.422302 -16.65157,-6.678585 -49.59646,-15.815249 -57.02647,-15.815249 -6.71032,0 -3.25915,1.458403 15.07598,6.370851 47.12973,12.627249 88.79091,37.15453 121.94456,71.79272 16.34204,17.0738 23.80158,27.87158 30.13182,43.61612 6.75854,16.80986 6.63143,19.80796 -0.38887,9.17269 -13.79046,-20.89159 -34.87716,-33.6497 -41.80987,-25.29629 -2.38231,2.87051 -2.35486,16.26261 0.0502,24.49216 3.38589,11.58565 1.31581,10.8749 -7.75693,-2.66329 -13.10407,-19.55362 -44.19147,-52.22291 -47.0111,-49.40326 -0.37765,0.37764 3.9546,6.98423 9.62721,14.68131 25.10692,34.06716 40.88879,64.30214 49.34084,94.52741 4.52992,16.19945 4.78276,21.32826 0.50303,10.204 -4.81075,-12.5045 -14.81143,-28.07623 -20.56316,-32.01823 -11.65414,-7.98726 -23.23319,-2.93469 -31.6964,13.83085 -7.38882,14.63716 -10.09173,27.28553 -10.22623,47.854 l -0.12053,18.43089 -6.02273,-5.15131 c -6.67413,-5.70845 -13.52555,-7.74361 -19.02725,-5.65186 -5.99445,2.27909 -14.63964,12.40157 -21.98229,25.73865 l -6.93598,12.59841 -0.79365,-22.67401 c -0.64605,-18.45694 -1.12337,-21.93599 -2.56643,-18.70578 -2.86481,6.41268 -4.17194,37.38971 -2.23333,52.92706 0.96334,7.721 3.15131,17.721 4.86215,22.22222 1.71083,4.50123 3.11097,8.36262 3.11142,8.58088 4.3e-4,0.21825 -6.25392,0.39682 -13.89857,0.39682 -7.64466,0 -16.26434,0.67827 -19.15485,1.50726 -3.24512,0.93068 -6.73241,0.94571 -9.1165,0.0393 -3.23321,-1.22927 -3.86104,-2.53838 -3.86104,-8.05081 0,-5.94587 0.25435,-6.37206 2.62861,-4.40436 2.41517,2.00158 2.55797,1.29698 1.75873,-8.67738 -1.18911,-14.83951 -9.21892,-30.98524 -20.90813,-42.0404 -7.81582,-7.39189 -12.05063,-9.9424 -12.05063,-7.25778 0,0.5264 4.30652,5.94835 9.57004,12.04876 5.26353,6.10043 11.33496,14.57457 13.49207,18.83143 4.24909,8.38519 5.25741,13.7057 1.71241,9.03575 -3.27578,-4.3153 -3.59771,-3.45397 -2.37306,6.3492 0.62709,5.01985 1.20046,12.06307 1.27412,15.65162 l 0.13394,6.52462 -18.15738,0.80129 c -13.99359,0.61754 -19.36253,1.50222 -23.4127,3.85789 l -5.25532,3.0566 z M 270.63492,354.0279 c 0,-2.4905 -22.28103,-12.45673 -33.37719,-14.92949 -11.17475,-2.49027 -37.85097,-5.05546 -36.29824,-3.49043 0.52772,0.53189 6.87867,2.00778 14.11322,3.27973 16.79615,2.95307 33.15831,7.49107 45.24475,12.54851 11.28654,4.72275 10.31746,4.47932 10.31746,2.59168 z m 146.98557,-55.6152 c 9.3713,-15.58343 24.53694,-36.98494 27.51091,-38.82295 0.9317,-0.57581 1.694,-2.20986 1.694,-3.63119 0,-4.36729 -8.74064,5.25965 -20.53105,22.61287 -12.41067,18.26613 -20.73879,32.62767 -20.73879,35.76327 0,3.39024 2.18649,0.50474 12.06493,-15.922 z M 118.73672,164.12119 c 20.71747,-14.07022 19.79244,-13.32754 16.59992,-13.32754 -2.69119,0 -35.0598,20.79328 -36.831748,23.66035 -2.531349,4.09581 3.589638,0.9697 20.231828,-10.33281 z M 400.29883,68.650794 c -0.27264,-3.98247 0.46639,-4.600256 8.43133,-7.04814 4.80159,-1.475683 12.30159,-3.261397 16.66667,-3.968254 7.916,-1.281871 7.90438,-1.286398 -4.4941,-1.75111 -18.53546,-0.694736 -27.99832,5.106066 -24.25268,14.867069 1.49446,3.894495 3.96193,2.474674 3.64878,-2.099565 z"
     id="path59"
     transform="scale(0.75)" />
  <path
     style="fill:#ffffff;fill-opacity:1;stroke-width:1.5873"
     d="m 334.5471,395.30314 -8.31005,-4.0333 -0.0233,-9.17481 c -0.0159,-6.25635 1.239,-12.17387 3.94497,-18.60297 5.07668,-12.06166 5.11497,-19.12558 0.13503,-24.91149 -4.88598,-5.67673 -6.42065,-4.20762 -3.33047,3.18822 2.87695,6.88553 3.04595,12.22364 0.55969,17.68034 -2.16119,4.7433 -3.76306,5.09058 -5.89649,1.27838 -2.78551,-4.97743 -3.62884,-0.90134 -1.77157,8.56262 1.00178,5.10471 1.5871,12.13844 1.30071,15.6305 l -0.52071,6.34921 -17.12559,0.45116 -17.12557,0.45116 -11.68238,-12.35592 c -6.4253,-6.79576 -12.13865,-11.91226 -12.69632,-11.37 -0.55766,0.54225 2.98689,5.86689 7.87681,11.83251 7.78824,9.5015 8.52759,10.98093 5.96207,11.92998 -1.61078,0.59587 -8.26321,0.055 -14.78315,-1.20205 -6.51995,-1.257 -15.42587,-1.89908 -19.79095,-1.42685 -4.36508,0.47222 -12.28835,1.30028 -17.60727,1.84012 l -9.67076,0.98154 -12.98095,-10.48009 c -20.82318,-16.8115 -40.39006,-24.85123 -49.11624,-20.18111 -4.14082,2.21611 -6.63606,10.78896 -6.64767,22.83936 -0.008,8.63511 -0.19488,9.08329 -3.12772,7.51367 -6.72305,-3.59807 -15.17352,-42.944 -17.86704,-83.19008 -1.02895,-15.37443 -2.29363,-25.4614 -2.96481,-23.64702 -2.6953,7.2861 -5.02066,41.8803 -4.08522,60.77553 l 0.98229,19.84127 -6.71128,-13.33289 c -11.20856,-22.2674 -17.654719,-23.97935 -26.03457,-6.91419 -4.150489,8.45227 -4.486219,10.53163 -4.486219,27.78568 0,10.25733 -0.51576,18.65019 -1.146135,18.65079 -0.630375,5.9e-4 -2.407938,-4.10606 -3.950141,-9.1259 -4.088172,-13.30692 -4.050294,-65.40529 0.06145,-84.52381 9.021402,-41.94713 24.164425,-76.08057 49.406985,-111.36689 5.71436,-7.98805 10.36045,-15.30548 10.32465,-16.26096 -0.12148,-3.2416 -12.93716,12.4706 -25.77141,31.5961 -21.262434,31.68511 -33.029917,59.27194 -43.959574,103.05561 L 60.004373,329.1271 58.09213,308.61116 c -2.141746,-22.97819 -4.69687,-44.17157 -5.949606,-49.34881 -0.457283,-1.88983 -2.957627,-4.31676 -5.556321,-5.39318 -4.102808,-1.69944 -5.2863,-1.54547 -8.988882,1.16935 -2.345194,1.71956 -6.585416,6.54865 -9.422718,10.73131 -6.569676,9.68479 -6.540325,6.52938 0.08025,-8.62697 6.70956,-15.36008 16.359033,-30.17405 33.689415,-51.72034 7.665291,-9.53001 14.629662,-18.22014 15.476384,-19.31141 3.707086,-4.77776 -3.915962,-1.49875 -12.195779,5.24594 -4.881614,3.97654 -8.875664,6.61912 -8.875664,5.87241 0,-0.74671 3.612484,-5.41078 8.027743,-10.36458 16.053065,-18.01114 43.060858,-34.93971 80.212268,-50.27731 15.28066,-6.30847 16.26679,-7.00938 21.42857,-15.23078 5.51405,-8.78248 6.84844,-9.88151 8.58538,-7.07108 0.53956,0.87302 3.97458,1.59129 7.63337,1.59616 14.08563,0.0187 26.58916,6.89297 32.17102,17.68709 3.07996,5.95598 1.57496,5.71163 -5.78713,-0.93959 -7.79818,-7.04517 -15.47905,-8.60655 -22.46975,-4.56767 -6.99581,4.04184 -16.383,22.93098 -19.50509,39.24868 -3.06947,16.04267 -3.14155,33.67125 -0.1447,35.38852 1.21834,0.69815 4.67058,7.8237 7.67165,15.83458 8.13938,21.72679 14.45806,31.0893 34.16079,50.61674 17.40315,17.24834 22.82105,24.84495 13.49207,18.91768 -11.07267,-7.03514 -22.2323,-16.64485 -29.46124,-25.36949 -13.0634,-15.76628 -14.99515,-13.80431 -2.62421,2.66527 8.37222,11.14602 18.1814,20.10303 30.10132,27.48627 3.92857,2.43338 10.16262,7.18046 13.85343,10.54908 l 6.71055,6.12478 -8.29785,-0.0235 c -10.9675,-0.031 -26.29035,-3.74811 -36.24496,-8.79249 -17.616,-8.9267 -29.90684,-27.67059 -36.61472,-55.83851 -3.38961,-14.23378 -3.73245,-14.94557 -4.18377,-8.68629 -0.60361,8.37124 4.40757,28.80169 9.92528,40.46516 11.74928,24.83594 29.49348,34.15956 70.2959,36.9367 l 16.23749,1.10516 4.14054,7.06528 c 4.74874,8.10313 6.2416,7.70853 6.2416,-1.64982 0,-10.92633 4.08635,-8.48879 7.33251,4.37389 3.14357,12.4562 6.5476,17.81016 14.1563,22.26528 5.23802,3.06705 5.2734,3.06705 4.07049,0 -1.86689,-4.75993 -4.37604,-21.63166 -3.36712,-22.6406 0.49319,-0.49319 2.10136,0.84592 3.57373,2.97578 5.26001,7.609 15.79,17.7983 17.72635,17.15286 1.25385,-0.41796 0.0532,-2.70067 -3.3004,-6.27477 -2.89918,-3.08981 -7.98535,-8.96577 -11.3026,-13.05774 -8.67529,-10.70127 -17.38312,-9.43022 -11.6288,1.69741 2.37029,4.58364 1.92856,11.49759 -0.73459,11.49759 -1.26328,0 -2.65588,-4.21295 -8.13261,-24.60318 -1.94126,-7.22741 -2.58385,-7.98058 -7.19215,-8.42984 -4.31522,-0.42068 -5.21341,0.11614 -6.09917,3.64535 -0.57132,2.27627 -1.33578,3.84167 -1.6988,3.47864 -0.36303,-0.36304 -1.37469,-7.36058 -2.24814,-15.55011 -2.08443,-19.54375 -3.82536,-23.93537 -9.2393,-23.30691 -2.89889,0.33651 -4.96894,2.14386 -6.91324,6.03589 -2.60232,5.20925 -2.77546,5.30079 -2.77778,1.46849 -10e-4,-2.24787 1.78326,-9.33727 3.9658,-15.75421 2.18254,-6.41693 3.96825,-12.25633 3.96825,-12.97642 0,-3.05272 -5.47032,-0.91834 -10.47619,4.08754 -8.29003,8.29003 -6.39938,2.59198 2.52318,-7.60431 14.27339,-16.31103 13.94595,-19.17887 -2.07335,-18.15884 -5.71438,0.36386 -10.12748,0.23715 -9.80686,-0.28162 0.3206,-0.51876 8.16105,-4.04541 17.42321,-7.83701 12.38246,-5.06897 16.71238,-7.55795 16.35711,-9.40267 -0.65181,-3.3846 -7.165,-6.48265 -13.9471,-6.63403 -7.78092,-0.1737 -2.57955,-2.10675 12.69841,-4.71925 14.56318,-2.49031 16.49496,-3.92944 9.40442,-7.00615 l -5.43616,-2.35885 8.87346,-0.0621 c 6.82963,-0.0478 11.14036,1.07066 18.71549,4.856 8.37622,4.18565 9.54662,5.27409 7.85845,7.30822 -1.09099,1.31454 -3.6201,3.01227 -5.62026,3.77273 -4.77411,1.81513 -4.62459,4.32741 0.33159,5.57133 2.18254,0.54778 3.96825,1.29099 3.96825,1.65158 0,0.36058 -1.96428,3.62614 -4.36508,7.25681 -4.13001,6.24571 -4.36508,7.59017 -4.36508,24.96596 0,17.00183 0.31175,18.89502 4.20058,25.50956 4.30412,7.32094 10.32485,13.77952 11.62931,12.47505 0.40208,-0.40208 -1.71049,-4.16516 -4.6946,-8.3624 -6.45854,-9.08405 -9.47254,-21.69143 -8.29371,-34.69189 0.93463,-10.30721 4.46355,-17.04174 8.92995,-17.04174 3.69024,0 4.46301,1.97942 5.69033,14.57536 0.74624,7.65867 0.56159,9.37154 -0.78159,7.25003 -2.78076,-4.39219 -4.7755,-3.25498 -4.7755,2.72254 0,3.88884 1.44331,7.14418 4.92633,11.11111 4.56552,5.19986 4.68178,5.6108 1.5873,5.6108 -5.48776,0 -3.82919,2.62957 4.80148,7.61244 7.25595,4.18921 7.8165,4.88122 5.15873,6.36862 -3.23165,1.80856 -3.22976,1.80971 12.09758,7.44087 3.05556,1.12261 5.38042,2.82303 5.16635,3.77876 -0.21404,0.95572 3.17881,3.54572 7.53969,5.75554 4.36089,2.20985 7.92889,4.96805 7.92889,6.12939 0,1.16133 5.86166,5.25644 13.02592,9.10023 7.16425,3.84381 15.05157,8.68477 17.52736,10.75769 2.47578,2.07292 4.95491,3.31547 5.50914,2.76122 1.56062,-1.5606 -6.56187,-9.28387 -15.26079,-14.51072 -5.43597,-3.26627 -8.11354,-6.01625 -8.70246,-8.93777 -0.61178,-3.03497 -2.65281,-5.01505 -7.26856,-7.05151 -3.52985,-1.55737 -6.41166,-3.22983 -6.40403,-3.71659 0.008,-0.48674 4.45418,-3.74214 9.88119,-7.23421 24.42999,-15.71968 40.47442,-31.76919 49.19076,-49.20634 11.94724,-23.90058 16.96529,-60.68945 11.58331,-84.92064 -1.2604,-5.6746 -2.6845,-12.10317 -3.16467,-14.28571 -1.63862,-7.44808 6.63036,11.87666 8.8296,20.63492 3.10697,12.37319 2.78672,41.19167 -0.59976,53.96825 -4.0747,15.37324 -13.64932,33.44951 -28.9909,54.73303 -14.55608,20.19376 -19.15777,27.80665 -16.808,27.80665 0.79503,0 2.73039,-1.96428 4.30081,-4.36508 5.44217,-8.31976 19.02628,-21.49673 37.29498,-36.17715 10.09613,-8.1131 21.41794,-18.71913 25.15957,-23.56899 18.43049,-23.88935 19.21086,-47.22992 2.67199,-79.91885 -13.6568,-26.99255 -16.34894,-26.01336 -3.72859,1.35617 8.13889,17.65063 8.34482,18.45818 8.85833,34.7374 0.64305,20.38542 -2.211,29.43601 -13.76495,43.65079 -7.67551,9.44313 -22.47359,21.55489 -22.47359,18.39392 0,-0.90454 2.10048,-6.93224 4.66772,-13.39489 9.4029,-23.67048 12.34647,-43.00791 9.60004,-63.06663 -1.98416,-14.49148 -8.94763,-35.66912 -16.39754,-49.86891 -10.70941,-20.41253 -42.07833,-44.766275 -59.86239,-46.475099 -10.86203,-1.043704 -14.90135,1.942945 -18.28219,13.517729 -4.09234,14.01073 -4.51853,14.50998 -5.10278,5.977489 -0.91299,-13.333332 0.63987,-17.462295 9.94555,-26.444749 4.71191,-4.54825 8.98326,-9.927599 9.49188,-11.95411 0.90917,-3.622439 1.02458,-3.641822 6.84493,-1.149597 9.33085,3.995388 23.18181,3.267399 41.81181,-2.197572 9.06913,-2.660362 22.56075,-6.076223 29.98138,-7.590803 17.58227,-3.588609 52.68643,-3.955768 65.87302,-0.688974 L 500,46.782275 l -9.94754,0.815212 c -5.47114,0.448366 -9.97548,1.527112 -10.00963,2.397213 -0.0342,0.8701 9.44223,3.765192 21.05865,6.433536 31.24958,7.178181 50.96863,14.232158 65.40565,23.397178 7.34182,4.6608 8.1285,8.14168 0.97474,4.313108 -1.83097,-0.979906 -6.89312,-1.809254 -11.24924,-1.842997 -17.55736,-0.136 -16.85404,7.125837 3.96913,40.981725 8.39197,13.64431 14.94133,25.12462 14.55414,25.51182 -0.38719,0.3872 -5.32296,-3.2144 -10.96838,-8.00356 -29.43477,-24.9703 -70.12404,-46.701253 -107.71828,-57.529212 -17.88575,-5.151481 -36.47332,-8.622754 -34.45592,-6.434723 0.53812,0.583636 8.40585,3.053761 17.48384,5.489166 47.80389,12.82463 84.44179,33.918999 118.83935,68.422049 20.0052,20.06658 27.31811,30.17348 34.17879,47.23738 6.75854,16.80986 6.63143,19.80796 -0.38887,9.17269 -13.71364,-20.77521 -34.87691,-33.65 -41.73322,-25.38865 -2.32821,2.80532 -2.37113,13.28577 -0.0948,23.16046 2.93064,12.71336 1.87945,13.33316 -4.86946,2.87111 -12.27663,-19.03109 -44.15623,-53.81753 -49.32039,-53.81753 -1.84737,0 -1.20875,1.01647 11.46841,18.25397 23.17029,31.50534 38.73186,61.72737 46.98986,91.25868 4.01978,14.37508 4.90681,21.95718 1.48155,12.66378 -3.05939,-8.30074 -9.61087,-20.65024 -14.22071,-26.806 -12.65475,-16.89851 -27.80233,-14.67344 -38.61294,5.67194 -7.56306,14.23359 -10.41224,27.27073 -10.59297,48.47094 l -0.15822,18.5609 -3.96825,-3.79417 c -5.35305,-5.11821 -15.05929,-8.98919 -19.65049,-7.83688 -5.6498,1.418 -14.1867,11.05191 -23.12497,26.09653 L 437.30389,350 l -0.001,-21.8254 c -10e-4,-20.51404 -1.72412,-28.2727 -3.70129,-16.66666 -3.93192,23.08039 -2.36822,53.35401 3.63862,70.44455 1.77986,5.06403 3.23611,9.41065 3.23611,9.65916 0,0.24851 -6.25471,0.45184 -13.89936,0.45184 -7.64466,0 -16.26434,0.67827 -19.15485,1.50726 -3.24512,0.93068 -6.73241,0.94571 -9.1165,0.0393 -3.23321,-1.22927 -3.86104,-2.53838 -3.86104,-8.05081 0,-5.94587 0.25435,-6.37206 2.62861,-4.40436 2.41374,2.00041 2.55958,1.31708 1.7842,-8.35988 -1.37609,-17.17403 -11.84654,-36.03773 -25.99146,-46.82658 -9.03504,-6.89138 -8.0139,-3.01551 2.37904,9.02992 5.37255,6.22679 11.53319,14.80431 13.6903,19.06117 4.24909,8.38519 5.25741,13.7057 1.71241,9.03575 -3.27578,-4.3153 -3.59771,-3.45397 -2.37306,6.3492 0.62709,5.01985 1.20046,12.06307 1.27412,15.65162 l 0.13394,6.52462 -18.15738,0.80129 c -13.99359,0.61754 -19.36253,1.50222 -23.4127,3.85789 l -5.25532,3.0566 z m -63.91218,-41.08262 c 0,-2.10163 -14.06956,-9.18628 -25.39682,-12.78844 -8.705,-2.76825 -33.04207,-6.57195 -41.26985,-6.45016 -4.91765,0.0728 2.19515,2.69303 10.31746,3.80076 11.56412,1.57715 35.05126,8.02557 46.03175,12.63808 11.21235,4.70991 10.31746,4.46707 10.31746,2.79976 z m 147.57541,-56.9983 c 6.22489,-10.25793 15.20983,-23.47303 19.96653,-29.36689 4.7567,-5.89384 8.64854,-11.56319 8.64854,-12.59855 0,-3.60283 -9.81564,7.54362 -20.53105,23.31465 -15.66202,23.05151 -23.32938,37.30159 -20.0704,37.30159 0.36761,0 5.76148,-8.39286 11.98638,-18.6508 z M 118.60179,164.05232 c 21.29873,-14.43792 19.81031,-13.25867 16.73485,-13.25867 -2.69119,0 -35.0598,20.79328 -36.831748,23.66035 -2.46183,3.98333 3.196458,1.05473 20.096898,-10.40168 z M 399.8561,69.039386 c -0.85999,-3.426484 -0.23569,-4.295018 4.51371,-6.279445 3.03148,-1.266627 9.99014,-3.024179 15.46371,-3.905673 5.47359,-0.881495 10.33356,-1.984316 10.79996,-2.450714 0.46641,-0.4664 -4.44962,-0.846889 -10.92448,-0.845532 -17.80595,0.0037 -26.6511,5.83134 -23.05895,15.192337 1.52625,3.977335 4.26666,2.514855 3.20605,-1.710973 z"
     id="path60"
     transform="scale(0.75)" />
  <path
     style="fill:#ffffff;fill-opacity:1;stroke-width:1.5873"
     d="m 347.62783,225.38262 c 2.13652,-3.45696 -1.26102,-7.72865 -8.6884,-10.92382 -10.16597,-4.37328 -13.04889,-4.22599 -19.23942,0.983 l -5.14673,4.33069 1.04147,-4.14954 c 1.20864,-4.81559 -1.36344,-6.00837 -13.2138,-6.12775 l -7.14285,-0.072 4.36507,-3.25671 c 4.20849,-3.13988 5.92889,-7.75383 2.89116,-7.75383 -0.81066,0 -2.45797,-0.98405 -3.6607,-2.18677 -1.20272,-1.20273 -5.36088,-3.70797 -9.24036,-5.5672 -6.60867,-3.16719 -6.72819,-3.33213 -1.89486,-2.61481 6.809,1.01052 6.52748,-1.2851 -0.76529,-6.24066 l -5.92402,-4.02548 h 6.71767 c 3.69472,0 6.71767,-0.68418 6.71767,-1.52039 0,-0.83622 -3.21917,-3.40696 -7.15372,-5.71276 -9.04269,-5.29937 -17.11753,-14.69562 -23.1384,-26.92489 -5.10554,-10.37011 -8.4394,-25.99249 -6.07366,-28.46101 0.89014,-0.92881 1.44563,-0.31921 1.4464,1.5873 6.9e-4,1.70238 2.14156,7.61946 4.75749,13.14906 6.28719,13.28998 19.13465,25.86328 30.94078,30.28052 10.69016,3.9997 24.61794,4.52897 24.61794,0.9355 0,-1.30952 0.27695,-2.38095 0.61544,-2.38095 2.4455,0 21.78225,10.26138 24.04188,12.75824 3.12238,3.4502 10.65742,4.09334 17.49591,1.49335 5.30825,-2.01819 8.02813,-0.0369 12.03172,8.76428 3.94661,8.67598 3.80844,10.79682 -0.61352,9.41684 -1.96429,-0.61301 -4.07894,-1.90766 -4.69923,-2.87701 -0.74911,-1.17066 -1.93138,-0.69908 -3.52095,1.40441 -1.54654,2.04655 -2.411,2.40409 -2.44363,1.01067 -0.0352,-1.50195 -1.25456,-1.854 -4.01873,-1.16024 -2.18254,0.54779 -3.96826,0.30863 -3.96826,-0.53144 0,-1.68844 -9.29492,-1.48189 -12.0756,0.26834 -0.96697,0.60863 -4.17654,0.41302 -7.13237,-0.4347 -6.88827,-1.97553 -14.12536,-1.98027 -14.12536,-0.009 0,0.84264 2.24905,4.09359 4.99788,7.22434 3.40736,3.88076 5.51473,5.17543 6.62195,4.0682 1.10723,-1.10723 2.18304,-0.50291 3.38049,1.89894 0.96603,1.93766 2.80758,3.60062 4.09233,3.69546 5.15063,0.38024 9.42543,2.72185 10.36326,5.67669 0.59974,1.88961 1.89482,2.77066 3.28726,2.23633 1.2637,-0.48493 2.7028,0.17414 3.19799,1.46459 0.67826,1.76753 2.52324,2.12084 7.4796,1.43233 7.96464,-1.1064 6.0933,0.72307 -6.7135,6.5633 -9.19017,4.19096 -12.07148,4.81854 -10.508,2.28878 z m -11.03442,-47.74315 c 1.50044,-2.42775 -0.92178,-4.39403 -6.88111,-5.5859 -3.90307,-0.78061 -5.10913,-0.4702 -5.10913,1.31498 0,4.06483 9.9313,7.60236 11.99024,4.27092 z"
     id="path61"
     transform="scale(0.75)" />
  <path
     style="fill:#ffffff;fill-opacity:1;stroke-width:1.5873"
     d="m 296.9508,155.15873 c -4.41358,-6.76882 -7.46504,-26.5873 -4.09366,-26.5873 0.87302,0 1.59735,1.60714 1.60963,3.57143 0.0123,1.96428 2.84529,8.75 6.29558,15.07936 l 6.27325,11.50794 h -3.87803 c -2.27347,0 -4.84157,-1.47771 -6.20677,-3.57143 z"
     id="path62"
     transform="scale(0.75)" />
  <path
     style="fill:#ffffff;fill-opacity:1;stroke-width:0.396825"
     d="m 270.88131,178.3545 c -1.98226,-0.99232 -6.1522,-3.52602 -9.26652,-5.63044 -3.11433,-2.10442 -7.62669,-5.15133 -10.02749,-6.77091 -2.40079,-1.61958 -7.40079,-4.43734 -11.11111,-6.26168 -3.71032,-1.82435 -6.56746,-3.32223 -6.34921,-3.32863 0.75529,-0.0221 7.95717,1.99668 12.89683,3.61522 12.48478,4.09079 28.57143,10.43409 28.57143,11.26631 0,0.14674 -1.42857,0.14035 -3.1746,-0.0142 -3.06592,-0.2714 -3.17461,-0.25197 -3.17461,0.56733 0,0.51503 1.24732,2.17255 3.17461,4.21864 4.5375,4.81719 4.25862,5.24083 -1.53933,2.33837 z"
     id="path63"
     transform="scale(0.75)" />
  <path
     style="fill:#ffffff;fill-opacity:1;stroke-width:0.396825"
     d="m 302.67105,159.4796 c -3.44264,-0.57341 -4.67745,-1.28925 -6.20307,-3.59606 -4.03893,-6.10704 -6.30009,-18.9544 -4.86671,-27.65147 0.33651,-2.04181 0.71508,-3.81562 0.84126,-3.9418 0.5568,-0.55679 1.09535,0.87303 1.776,4.71511 0.40237,2.27125 1.39922,5.91525 2.21523,8.09779 2.60966,6.97991 4.64058,10.61868 10.91926,19.56397 1.45312,2.07027 1.65429,2.5642 1.16928,2.8709 -0.69939,0.44228 -2.9819,0.41948 -5.85125,-0.0584 z"
     id="path64"
     transform="scale(0.75)" />
  <path
     style="fill:#ffffff;fill-opacity:1;stroke-width:0.396825"
     d="m 446.95201,395.36 c -2.32626,-2.63663 -4.15503,-8.54896 -5.31151,-17.17189 -1.03813,-7.74055 -0.30171,-12.26362 2.46756,-15.15546 2.43085,-2.53845 9.33176,-4.57803 17.39988,-5.14257 5.29409,-0.37044 14.79259,-0.21271 19.04762,0.31629 l 1.98412,0.24668 -1.28677,0.53533 c -0.70774,0.29443 -3.3863,0.87827 -5.95239,1.29741 -6.32886,1.03374 -8.20588,1.52123 -11.1396,2.89313 -2.7574,1.28944 -4.03789,2.84753 -4.04039,4.9163 -0.002,1.77245 1.94163,4.23806 4.22873,5.36402 1.81251,0.89232 2.30018,0.94231 8.66661,0.88845 5.58827,-0.0473 24.61526,-1.0957 35.11905,-1.93511 l 2.57937,-0.20614 -5.55556,1.97171 c -9.64131,3.42176 -14.88095,6.68452 -14.88095,9.26644 0,1.38808 1.06173,2.59273 2.69027,3.0524 0.81202,0.2292 7.27997,0.58635 14.37322,0.79366 7.09325,0.20732 15.75397,0.46288 19.24603,0.56792 7.25934,0.21836 9.09872,0.62235 14.51307,3.18755 l 3.7409,1.77236 -25,0.0476 c -35.75258,0.068 -68.31383,0.6113 -70.16082,1.17056 -0.86489,0.26189 -1.63513,0.79545 -1.80287,1.24889 -0.28148,0.76091 -0.31741,0.7638 -0.92557,0.0745 z"
     id="path65"
     transform="scale(0.75)" />
  <path
     style="fill:#ffffff;fill-opacity:1;stroke-width:0.793651"
     d="m 305.13482,226.78571 c -0.87334,-1.41865 -2.01006,-3.96539 -2.52603,-5.65941 -0.86577,-2.84242 -0.79681,-3.19451 0.89382,-4.5635 1.09103,-0.88346 3.08689,-1.48343 4.93478,-1.48343 h 3.10281 l -1.736,3.37301 c -1.01506,1.97223 -1.76335,4.93837 -1.80185,7.1423 -0.0362,2.07311 -0.33895,3.76954 -0.67275,3.76985 -0.33379,3e-4 -1.32145,-1.16016 -2.19478,-2.57882 z"
     id="path66"
     transform="scale(0.75)" />
  <path
     style="fill:#ffffff;fill-opacity:1;stroke-width:0.793651"
     d="m 346.77498,227.23748 c 2.21415,-5.72504 0.62804,-8.41655 -7.24358,-12.29173 -3.7369,-1.83968 -6.67887,-2.67535 -10.21005,-2.9002 -4.89873,-0.31193 -5.00599,-0.27396 -8.60919,3.04735 -2.00677,1.84977 -3.64867,3.87454 -3.64867,4.49947 0,0.62492 -0.35714,0.9155 -0.79365,0.64573 -0.43651,-0.26978 -0.79365,-2.38699 -0.79365,-4.7049 v -4.21441 L 312.5,210.82687 c -1.6369,-0.27057 -5.47619,-0.53147 -8.53175,-0.57978 -3.05555,-0.0483 -6.33946,-0.32011 -7.29756,-0.60398 -1.58642,-0.47003 -1.3432,-0.83512 2.72314,-4.08755 2.45584,-1.96429 4.6024,-3.99868 4.77014,-4.52088 0.16773,-0.52219 -1.23626,-1.73254 -3.11998,-2.68966 -1.88372,-0.95713 -4.21146,-2.58345 -5.17276,-3.61405 -0.9613,-1.0306 -2.32399,-1.87383 -3.02821,-1.87383 -1.65533,0 -12.20661,-4.9607 -14.27159,-6.70982 -1.8257,-1.54642 -2.4347,-1.61227 8.12453,0.87845 9.09528,2.1454 8.87748,0.68588 -0.78501,-5.26047 l -6.47951,-3.98752 5.52237,-0.0108 c 9.78332,-0.0192 11.58146,-1.50439 5.72079,-4.72512 -12.11292,-6.65667 -20.23662,-15.41497 -26.79182,-28.88471 -5.73692,-11.7883 -8.53607,-25.75185 -6.60717,-32.95983 0.40246,-1.50393 0.82359,-0.6801 2.0285,3.96825 7.2321,27.90031 26.92443,46.20443 51.64336,48.00279 4.99168,0.36316 6.86176,0.20915 8.00672,-0.65939 1.43126,-1.08573 1.43575,-1.22192 0.10713,-3.24965 -0.7627,-1.16403 -1.1847,-2.11642 -0.93778,-2.11642 0.24693,0 5.12705,2.14285 10.84471,4.7619 5.71767,2.61905 10.76758,4.76191 11.22202,4.76191 0.45444,0 2.54739,1.78571 4.651,3.96825 3.33825,3.4635 4.22868,3.96825 7.0004,3.96825 1.7466,0 5.4396,-0.70967 8.20667,-1.57706 2.76706,-0.86738 5.62819,-1.58167 6.35807,-1.5873 2.0069,-0.0155 6.78768,6.05949 8.61764,10.95051 2.96962,7.93704 2.95596,13.66168 -0.024,10.071 -0.5434,-0.65476 -1.78178,-1.19048 -2.75195,-1.19048 -0.97017,0 -2.41036,-0.71428 -3.20043,-1.5873 -1.96534,-2.17168 -2.71658,-1.99971 -3.70972,0.8492 l -0.84937,2.43651 -2.20325,-2.11085 c -2.14749,-2.05743 -2.25613,-2.0762 -4.29284,-0.7417 -1.14928,0.75304 -2.16773,1.23149 -2.26324,1.06324 -0.0955,-0.16826 -0.56907,-1.02021 -1.05236,-1.89323 -1.1614,-2.09793 -3.26123,-2.43388 -5.05669,-0.80901 -1.21918,1.10335 -1.71375,1.15092 -3.08194,0.29647 -1.40666,-0.87847 -1.88693,-0.77614 -3.50898,0.7477 -1.74617,1.64045 -2.04434,1.68312 -4.21037,0.60257 -2.47203,-1.23322 -13.53398,-2.85466 -15.20775,-2.22914 -0.54563,0.20392 -0.99206,0.78307 -0.99206,1.28699 0,1.56078 5.03963,8.61908 7.39124,10.35187 l 2.23251,1.64503 1.51968,-1.97798 c 1.39329,-1.81347 1.5214,-1.84596 1.5403,-0.39069 0.0289,2.22401 2.93048,6.74604 4.32866,6.74604 0.63949,0 1.49057,-0.58586 1.89128,-1.30191 0.80913,-1.44583 2.5249,-0.81794 2.5249,0.92399 0,1.30734 2.41755,2.75887 4.59492,2.75887 1.0351,0 1.76875,0.82821 2.28483,2.57936 0.65378,2.21843 1.0863,2.55499 3.091,2.40512 1.84515,-0.13793 2.61255,0.31684 3.68281,2.18254 1.5968,2.78357 3.26214,3.00584 4.90863,0.65514 1.07606,-1.53628 1.4261,-1.60463 3.60217,-0.70327 1.32567,0.54911 2.95243,0.79035 3.61504,0.53608 1.881,-0.72181 1.41505,0.79454 -0.77302,2.51568 -1.71975,1.35275 -9.37419,4.95106 -19.75523,9.28683 -2.93814,1.22715 -3.05609,1.21984 -2.52379,-0.15651 z m -10.93953,-49.88609 c 0.70384,-1.83417 -1.75085,-4.02999 -5.75988,-5.15245 -5.86304,-1.64155 -7.01907,1.55247 -1.72921,4.77768 3.11317,1.89808 6.83311,2.08424 7.48909,0.37477 z"
     id="path67"
     transform="scale(0.75)" />
  <path
     style="fill:#ffffff;fill-opacity:1;stroke-width:0.793651"
     d="m 63.294705,493.8704 c -1.418071,-0.17601 -2.895365,-0.92242 -3.282876,-1.6587 -0.38751,-0.73628 -4.137985,-10.84715 -8.334387,-22.46862 L 44.047619,448.61314 V 425.10022 401.5873 l 3.373016,0.004 c 1.855159,0.002 7.33498,0.23193 12.177381,0.51098 l 8.804365,0.50737 0.515621,19.92553 c 0.710674,27.46316 2.172071,38.83545 4.669604,36.33792 2.166031,-2.16603 3.097925,-9.77523 3.467983,-28.31715 0.209082,-10.47619 0.574821,-21.27977 0.812752,-24.00794 l 0.432602,-4.96032 h 11.717368 11.717369 l 0.4624,23.22516 c 0.47203,23.70925 1.15739,29.5834 3.72242,31.90472 3.57907,3.23902 4.75736,-5.02292 4.77806,-33.50289 l 0.0157,-21.62699 h 12.30158 12.30159 l 0.0151,24.00794 0.0151,24.00793 -8.06931,22.42064 -8.06931,22.42063 -9.60457,-0.009 c -5.28251,-0.005 -10.911093,-0.22479 -12.507966,-0.48886 -2.692581,-0.44525 -3.026343,-0.81729 -4.596481,-5.12354 -0.931192,-2.55389 -2.012536,-4.84087 -2.402986,-5.08218 -0.390451,-0.2413 -1.517331,2.06822 -2.504179,5.13228 l -1.79427,5.57103 -9.962831,-0.12701 c -5.479557,-0.0699 -11.123071,-0.27102 -12.541142,-0.44703 z"
     id="path68"
     transform="scale(0.75)" />
  <path
     style="fill:#ffffff;fill-opacity:1;stroke-width:0.793651"
     d="m 144.10854,472.81746 c 0.0335,-11.89484 0.31788,-30.73944 0.63193,-41.87689 0.54736,-19.41115 0.64638,-20.35185 2.39053,-22.71094 1.00074,-1.35357 3.30565,-3.31254 5.12204,-4.35327 3.24798,-1.86099 3.60395,-1.88907 21.55648,-1.70063 10.03969,0.10538 19.18924,0.46252 20.33234,0.79365 1.14311,0.33113 3.571,1.95592 5.39532,3.61066 l 3.31695,3.00861 0.48655,42.4279 0.48656,42.42789 h -12.42949 -12.4295 l -0.0939,-5.75396 c -0.0516,-3.16469 -0.32121,-6.8254 -0.59904,-8.13492 -0.45709,-2.15443 -0.83709,-2.40473 -3.99411,-2.63085 -4.1547,-0.29759 -4.80783,0.44647 -4.8246,5.49627 -0.007,2.01248 -0.23927,5.31605 -0.51686,7.34127 l -0.5047,3.68219 h -12.19371 -12.19371 z m 34.66581,-32.41236 c -0.23346,-6.58672 -0.76259,-12.31398 -1.17585,-12.72723 -1.08462,-1.08462 -5.99035,-1.66603 -7.19632,-0.85288 -0.72877,0.4914 -1.16717,4.29689 -1.5119,13.12402 l -0.48551,12.43194 h 5.39703 5.39703 z"
     id="path69"
     transform="scale(0.75)" />
  <path
     style="fill:#ffffff;fill-opacity:1;stroke-width:0.793651"
     d="m 212.30159,447.91043 v -46.53402 l 23.21428,0.43307 c 13.42724,0.25048 24.44271,0.80529 26.12802,1.31598 1.60255,0.4856 3.97531,1.87458 5.2728,3.08662 2.13432,1.99374 2.41194,2.8425 2.91394,8.90851 0.30518,3.68764 0.43242,12.84642 0.28276,20.35283 l -0.27212,13.64802 -2.72936,2.81436 c -1.50114,1.54789 -3.37614,3.01963 -4.16666,3.27054 -2.14301,0.68016 -1.79107,1.38161 2.05251,4.09081 2.98738,2.10571 3.61583,3.04743 4.36507,6.54105 0.4814,2.24466 0.87527,9.59933 0.87527,16.34372 v 12.26252 h -12.30159 -12.30159 v -12.69841 -12.69841 h -4.36508 -4.36508 v 12.69841 12.69841 h -12.30159 -12.30158 z m 33.33333,-11.64059 c 0,-8.80233 -0.50163,-10.08779 -3.92857,-10.06721 -3.86285,0.0232 -4.38455,0.99347 -4.68293,8.70956 -0.33028,8.5412 0.20383,9.53225 5.13725,9.53225 h 3.47425 z"
     id="path70"
     transform="scale(0.75)" />
  <path
     style="fill:#ffffff;fill-opacity:1;stroke-width:0.793651"
     d="m 280.55556,447.91821 v -46.52624 l 25.19841,0.58058 c 13.85913,0.31932 25.20497,0.63112 25.21298,0.6929 0.008,0.0618 1.70444,1.97203 3.76984,4.24499 l 3.75527,4.13267 0.0108,18.48638 0.0108,18.48638 -4.57429,4.10912 -4.57428,4.10912 4.56349,4.64405 4.56349,4.64406 v 14.46111 14.46111 H 326.19049 313.8889 v -12.69841 -12.69841 h -4.36508 -4.36508 v 12.69841 12.69841 h -12.30159 -12.30158 z m 32.9951,-10.81504 c -0.29863,-4.03769 -0.71367,-7.9277 -0.9223,-8.64446 -0.39456,-1.35547 -2.61869,-2.23879 -5.68392,-2.2574 -1.74896,-0.0106 -1.78571,0.17702 -1.78571,9.11615 v 9.12698 h 4.46745 4.46745 z"
     id="path71"
     transform="scale(0.75)" />
  <path
     style="fill:#ffffff;fill-opacity:1;stroke-width:0.793651"
     d="m 347.37469,453.76984 0.24436,-40.6746 1.98412,-3.96826 c 2.99024,-5.98046 5.50306,-6.91577 19.77116,-7.35908 22.77189,-0.70754 32.344,1.46006 34.25004,7.75591 0.51712,1.70809 1.01914,18.5938 1.30367,43.84921 l 0.46271,41.07142 h -12.4176 -12.41759 v -8.73015 -8.73016 h -2.62609 c -4.8696,0 -5.67374,1.32482 -5.98227,9.85582 l -0.27502,7.60449 h -12.27093 -12.27092 z m 33.18087,-12.44833 c 0,-12.99451 -0.54955,-15.13103 -3.89193,-15.13103 -4.4193,0 -4.83823,1.24187 -4.83823,14.3424 v 11.84807 h 4.36508 4.36508 z"
     id="path72"
     transform="scale(0.75)" />
  <path
     style="fill:#ffffff;fill-opacity:1;stroke-width:0.793651"
     d="M 414.68254,447.99572 V 401.547 l 12.36423,0.21856 12.36422,0.21857 7.55012,16.26984 c 4.15257,8.94841 7.83613,16.57087 8.18569,16.9388 0.34956,0.36793 0.89608,-6.81214 1.21448,-15.95572 l 0.5789,-16.62468 8.8315,-0.50893 c 4.85732,-0.2799 10.17078,-0.51054 11.80769,-0.51253 l 2.97619,-0.004 v 46.42857 46.42857 l -11.70635,-0.0111 -11.70635,-0.0111 -8.33334,-16.45713 -8.33333,-16.45712 -0.49855,13.88889 c -0.2742,7.63888 -0.54206,15.0496 -0.59524,16.46825 l -0.0967,2.57936 h -12.30158 -12.30159 z"
     id="path73"
     transform="scale(0.75)" />
  <path
     style="fill:#ffffff;fill-opacity:1;stroke-width:0.793651"
     d="m 506.74603,460.31746 v -34.12698 h -7.93651 -7.9365 V 413.88889 401.5873 h 28.96825 28.96825 v 12.20679 12.20678 l -8.33333,0.568 -8.33333,0.568 v 20.4318 c 0,11.23748 -0.23466,26.38168 -0.52146,33.65378 l -0.52147,13.22199 h -12.17695 -12.17695 z"
     id="path74"
     transform="scale(0.75)" />
  <path
     style="fill:#ffffff;fill-opacity:1;stroke-width:0.793651"
     d="m 574.79604,473.70262 c -0.47618,-22.18767 -0.45346,-22.07822 -4.58819,-22.10317 -3.34492,-0.0202 -8.92411,-3.34772 -10.66588,-6.36135 -1.47606,-2.55389 -1.62702,-4.42503 -1.87295,-23.21429 l -0.26749,-20.43651 h 12.37066 12.37067 v 17.46032 17.46032 h 4.24162 4.24163 l 0.51737,-11.30953 c 0.28456,-6.22024 0.51869,-13.89881 0.52028,-17.06349 l 0.003,-5.75397 2.97619,-0.004 c 1.6369,-0.002 7.01048,-0.23606 11.94128,-0.52017 l 8.9651,-0.51657 -0.23494,21.93678 -0.23493,21.93677 -2.93586,2.9346 c -2.60504,2.60392 -3.477,2.97375 -7.7381,3.28197 l -4.80224,0.34736 v 21.33318 21.33318 H 587.42219 575.2412 Z"
     id="path75"
     transform="scale(0.75)" />
  <path
     style="fill:#ffffff;fill-opacity:1;stroke-width:0.793651"
     d="m 444.92102,391.27933 c -2.01843,-4.69197 -4.1874,-18.10809 -3.5069,-21.6919 1.20646,-6.35383 3.61531,-8.3974 12.31637,-10.44875 5.4542,-1.28587 26.82507,-1.69808 26.82507,-0.51741 0,0.37662 -2.76786,1.12761 -6.1508,1.66886 -12.96953,2.07507 -17.44214,6.12761 -12.56764,11.38728 3.18272,3.43421 2.96982,3.42421 36.57558,1.7171 l 8.73016,-0.44347 -5.15873,2.14324 c -6.89388,2.86412 -11.45572,5.94728 -11.74465,7.93772 -0.50437,3.47456 1.254,3.82233 23.96886,4.74055 20.57372,0.83167 21.69106,0.95807 25.77651,2.91602 l 4.27057,2.04665 -47.28699,0.25938 c -36.48773,0.20013 -47.51342,0.48593 -48.2785,1.25143 -1.55955,1.56041 -1.95546,1.24878 -3.76891,-2.9667 z"
     id="path76"
     transform="scale(0.75)" />
  <path
     style="fill:#ffffff;fill-opacity:1;stroke-width:0.793651"
     d="m 342.06349,630.03136 c -13.43443,-1.50952 -34.32575,-7.60553 -48.48869,-14.14883 -10.09362,-4.66326 -19.1704,-11.03871 -27.50495,-19.31925 -9.42107,-9.36001 -16.39804,-19.57915 -13.36739,-19.57915 0.39509,0 5.4383,4.5 11.20713,10 10.41197,9.92676 18.73561,16.19047 21.51496,16.19047 0.79657,0 5.03409,1.42857 9.41672,3.17461 8.68914,3.46173 10.86838,3.80994 12.22586,1.95347 1.09268,-1.49433 3.13269,-0.862 15.48182,4.79886 8.14759,3.73486 8.29754,3.76956 10.71429,2.4792 2.24147,-1.19678 3.02786,-1.2064 9.19708,-0.11246 7.05175,1.25043 12.87793,1.54797 13.72496,0.70094 0.78264,-0.78265 -1.66193,-4.91756 -3.48369,-5.89254 -3.13859,-1.67972 -0.93029,-1.54777 7.6874,0.45933 8.71545,2.02986 27.30942,3.61543 27.30942,2.32874 0,-0.36347 -0.77654,-1.48745 -1.72564,-2.49773 -0.94911,-1.01027 -1.39554,-1.838 -0.99206,-1.83939 1.89197,-0.007 15.47295,-2.57129 19.18596,-3.62324 4.73729,-1.34214 5.47545,-3.10351 1.6525,-3.94317 -3.45203,-0.7582 -2.2357,-1.32142 10.13619,-4.69359 12.52053,-3.4127 16.1875,-4.96646 16.1875,-6.85892 0,-1.03378 -0.91752,-1.60696 -3.37302,-2.10714 l -3.37301,-0.68708 9.99147,-3.3511 c 12.91533,-4.33175 22.12903,-8.68031 20.53205,-9.69045 -0.63714,-0.40302 -3.15249,-0.73823 -5.58966,-0.74492 -2.43717,-0.007 -4.67481,-0.25573 -4.97253,-0.55346 -0.29772,-0.29772 4.05618,-2.90864 9.67533,-5.80206 10.76887,-5.5451 18.78214,-10.85794 22.74429,-15.07957 l 2.38095,-2.53689 -4.36508,0.17363 c -8.02148,0.31907 -11.49148,0.0396 -10.59828,-0.85361 0.45665,-0.45665 4.13478,-2.05884 8.17363,-3.56042 11.21191,-4.16841 16.21754,-8.56723 20.74289,-18.22834 3.09498,-6.60745 3.64118,-9.12698 1.97858,-9.12698 -0.71711,0 -5.3673,1.60714 -10.33376,3.57143 -13.62642,5.38939 -14.06715,5.02617 -5.05581,-4.16667 8.0115,-8.17284 11.29258,-13.39313 12.53476,-19.94315 0.88056,-4.6432 0.37206,-6.96175 -1.64237,-7.48854 -1.42099,-0.3716 -1.51392,-1.30177 -1.51392,-15.15274 0,-8.11626 0.28278,-14.75684 0.6284,-14.75684 0.34563,0 2.13134,1.53137 3.96825,3.40306 l 3.33985,3.40305 v 18.42234 18.42234 h 6.64683 c 3.65575,0 7.7629,0.22322 9.12698,0.49603 l 2.48016,0.49604 -0.0408,13.59127 c -0.0224,7.47519 -0.30881,16.00198 -0.63643,18.94841 -0.32763,2.94643 -0.33841,5.35714 -0.024,5.35714 1.00342,0 3.84423,-9.7127 4.6426,-15.87301 0.42429,-3.27381 0.78245,-9.79167 0.79593,-14.48413 l 0.0245,-8.53175 h 9.52381 9.52381 v -33.33333 -33.33333 h 3.92141 c 2.15678,0 4.15563,0.37897 4.4419,0.84216 0.28626,0.46319 0.91929,4.43559 1.4067,8.82756 0.98082,8.83774 0.93858,8.76603 9.2122,15.64227 5.87387,4.8818 7.2017,7.35405 7.20529,13.4154 0.003,4.70153 -0.13548,5.07669 -2.33684,6.34009 -4.03951,2.31836 -4.25026,3.56984 -4.8402,28.74204 -0.46588,19.87846 -0.79183,24.31124 -2.15927,29.36508 -1.98184,7.32458 -4.81868,13.83389 -8.20488,18.82664 -3.38308,4.98815 -10.33741,13.08015 -10.82347,12.59409 -0.21059,-0.21059 0.96977,-3.52712 2.62304,-7.37006 3.30131,-7.67381 4.60707,-17.36634 2.79554,-20.75121 -1.15398,-2.15623 -4.85325,-2.29019 -6.70607,-0.24285 -0.73134,0.80812 -3.64243,6.58855 -6.46909,12.84541 -10.04183,22.22772 -19.12538,34.295 -32.49559,43.16964 -5.68676,3.77467 -15.66769,9.15759 -17.00498,9.17114 -0.60552,0.006 1.27549,-2.30751 4.18004,-5.14146 4.994,-4.87261 10.9595,-12.99668 12.03751,-16.39321 0.58112,-1.83094 -0.87153,-3.85099 -2.76932,-3.85099 -1.88341,0 -7.04908,4.5973 -13.22008,11.76549 -11.36127,13.19721 -19.3136,20.57043 -25.85855,23.97549 -5.21079,2.71095 -14.11008,6.32251 -15.57937,6.32251 -0.93101,0 3.15427,-3.81234 10.32078,-9.63125 12.14357,-9.86006 11.7372,-10.46231 -2.69559,-3.99489 -18.68539,8.37305 -35.64868,13.54414 -54.99854,16.76576 -19.04561,3.17095 -35.45904,3.92224 -49.99845,2.28857 z"
     id="path77"
     transform="scale(0.75)" />
  <path
     style="fill:#ffffff;fill-opacity:1;stroke-width:0.793651"
     d="m 380.55556,537.22139 v -31.82622 l 16.50406,0.2786 c 18.90516,0.31914 20.0926,0.66571 21.61184,6.30773 0.57699,2.1428 0.7911,11.44733 0.6264,27.22153 -0.2817,26.97878 -0.37847,27.4469 -5.9967,29.00714 -1.64104,0.45573 -9.68013,0.83059 -17.86465,0.83302 l -14.88095,0.004 z m 21.74048,13.90418 c 0.62779,-1.63601 0.62779,-26.01196 0,-27.64796 -0.62449,-1.62739 -3.96759,-1.62739 -4.59208,0 -0.62779,1.636 -0.62779,26.01195 0,27.64796 0.26496,0.69046 1.29817,1.25538 2.29604,1.25538 0.99787,0 2.03108,-0.56492 2.29604,-1.25538 z"
     id="path78"
     transform="scale(0.75)" />
  <path
     style="fill:#ffffff;fill-opacity:1;stroke-width:0.793651"
     d="m 355.15873,549.60317 c 0,-10.69444 -0.25889,-19.44444 -0.57532,-19.44444 -0.31643,0 -3.02408,2.41071 -6.017,5.35714 l -5.44168,5.35715 -5.08717,-5.55556 c -2.79795,-3.05556 -5.0903,-6.03983 -5.09411,-6.63173 -0.004,-0.5919 4.87705,-6.03832 10.84637,-12.10317 l 10.85332,-11.027 h 8.59113 8.59113 v 31.74603 31.74603 h -8.33334 -8.33333 z"
     id="path79"
     transform="scale(0.75)" />
  <path
     style="fill:#ffffff;fill-opacity:1;stroke-width:0.793651"
     d="m 292.66871,568.19578 c -1.6176,-0.48834 -3.08756,-1.7237 -3.96825,-3.33493 -1.25229,-2.29109 -1.39887,-5.17886 -1.39887,-27.55926 0,-22.34882 0.14785,-25.27044 1.39419,-27.5502 1.99786,-3.65443 5.68437,-4.4188 19.66675,-4.07777 12.2594,0.29901 14.67746,0.98153 16.67041,4.70538 1.26531,2.36427 1.91296,34.97539 0.90366,45.50215 -0.73543,7.67029 -1.06472,8.89361 -2.88405,10.71429 -2.02562,2.02711 -2.23081,2.05756 -14.93414,2.21569 -7.08418,0.0882 -14.03654,-0.18872 -15.4497,-0.61535 z M 309.21375,550 c 0.71426,-2.58299 0.71246,-22.82403 -0.002,-25.39266 -0.67825,-2.43755 -3.18795,-3.05425 -4.59554,-1.12925 -1.3155,1.79905 -1.48246,25.01431 -0.19717,27.4159 1.17209,2.19008 4.09272,1.64555 4.79497,-0.89399 z"
     id="path80"
     transform="scale(0.75)" />
  <path
     style="fill:#ffffff;fill-opacity:1;stroke-width:0.793651"
     d="m 247.31191,557.01959 c -6.3362,-17.87485 -6.45195,-18.46777 -6.9873,-35.78943 l -0.48444,-15.6746 h 8.33054 8.33054 l 0.49072,16.07142 c 0.49726,16.2857 1.34929,22.02381 3.27023,22.02381 1.75289,0 2.10096,-2.7963 2.59319,-20.83333 l 0.47107,-17.2619 h 8.61455 8.61455 v 14.69721 c 0,14.64164 -0.0105,14.72941 -2.77541,23.21428 -1.52648,4.68439 -4.16158,12.26708 -5.85579,16.85041 l -3.08038,8.33333 -8.62834,0.21499 -8.62834,0.21498 z"
     id="path81"
     transform="scale(0.75)" />
  <path
     style="fill:#ffffff;fill-opacity:1;stroke-width:0.793651"
     d="m 495.1169,456.15079 c -4.59802,-4.9075 -5.03753,-6.04813 -5.03753,-13.07341 v -6.56944 h 3.96825 3.96825 v 11.11111 c 0,6.11111 -0.10851,11.11111 -0.24113,11.11111 -0.13263,0 -1.32866,-1.16072 -2.65784,-2.57937 z"
     id="path82"
     transform="scale(0.75)" />
</svg>
